SplineFontDB: 3.2
FontName: AurebeshSheev-Italic_BETA
FullName: Aurebesh Sheev Italic BETA
FamilyName: AurebeshSheev
Weight: BETA
Copyright: CC-0 Public Domain
Version: 1
ItalicAngle: 0
UnderlinePosition: 0
UnderlineWidth: 0
Ascent: 800
Descent: 200
InvalidEm: 0
sfntRevision: 0x00010000
LayerCount: 2
Layer: 0 0 "Back" 1
Layer: 1 0 "Fore" 0
XUID: [1021 178 1911899458 7645]
StyleMap: 0x0040
FSType: 8
OS2Version: 3
OS2_WeightWidthSlopeOnly: 0
OS2_UseTypoMetrics: 0
CreationTime: 1584758657
ModificationTime: 1589917542
PfmFamily: 17
TTFWeight: 400
TTFWidth: 5
LineGap: 90
VLineGap: 0
Panose: 2 0 5 3 0 0 0 0 0 0
OS2TypoAscent: 800
OS2TypoAOffset: 0
OS2TypoDescent: -200
OS2TypoDOffset: 0
OS2TypoLinegap: 90
OS2WinAscent: 813
OS2WinAOffset: 0
OS2WinDescent: 166
OS2WinDOffset: 0
HheadAscent: 813
HheadAOffset: 0
HheadDescent: -166
HheadDOffset: 0
OS2SubXSize: 650
OS2SubYSize: 699
OS2SubXOff: 0
OS2SubYOff: 140
OS2SupXSize: 650
OS2SupYSize: 699
OS2SupXOff: 0
OS2SupYOff: 479
OS2StrikeYSize: 49
OS2StrikeYPos: 258
OS2CapHeight: 740
OS2XHeight: 640
OS2Vendor: 'PfEd'
OS2CodePages: 00000001.00000000
OS2UnicodeRanges: 00000023.00000000.00000000.00000000
MarkAttachClasses: 1
DEI: 91125
LangName: 1033 "" "" "" "" "" "" "" "" "" "" "" "" "" "" "" "" "Aurebesh_Sheev"
Encoding: UnicodeBmp
UnicodeInterp: none
NameList: AGL For New Fonts
DisplaySize: -72
AntiAlias: 1
FitToEm: 0
WinInfo: 0 25 10
BeginPrivate: 6
BlueValues 33 [-53 -39 638 642 640 640 740 740]
BlueShift 2 18
StdHW 4 [41]
StdVW 4 [80]
StemSnapH 32 [32 36 41 48 54 60 70 76 80 198]
StemSnapV 34 [51 60 65 70 76 80 92 100 137 156]
EndPrivate
BeginChars: 65536 84

StartChar: ltr65
Encoding: 65 65 1
Width: 500
GlyphClass: 2
Flags: HMW
HStem: 279 40<110 269.5 190 269.5 139 274.5> 359 40
VStem: 110 80<-26.5 279 0 279> 410 80<-26.5 86.5>
LayerCount: 2
Fore
SplineSet
190 0 m 2
 254.412109375 279 l 1
 423.412109375 279 449.940429688 173 410 0 c 0
 397.763671875 -53 477.763671875 -53 490 0 c 0
 542.407226562 227 462.646484375 319 223.646484375 319 c 0
 201.646484375 319 179.491210938 301 174.412109375 279 c 2
 110 0 l 2
 97.763671875 -53 177.763671875 -53 190 0 c 2
110.440429688 565 m 0
 154.87109375 536.2421875 197.298828125 528.627929688 233.223632812 533.744140625 c 1
 202.115234375 399.000976562 l 2
 197.036132812 377.000976562 210.880859375 359.000976562 232.880859375 359.000976562 c 0
 501.880859375 359.000976562 601.739257812 484.000976562 628.520507812 600.000976562 c 0
 640.755859375 653.000976562 560.755859375 653.000976562 548.520507812 600.000976562 c 0
 528.204101562 512.000976562 466.115234375 399.000976562 282.115234375 399.000976562 c 1
 327.453125 595.379882812 l 2
 331.680664062 605.759765625 331.108398438 615.282226562 327.365234375 622.868164062 c 0
 324.7421875 628.890625 320.163085938 633.301757812 314.475585938 636.1015625 c 0
 304.450195312 641.571289062 290.9609375 642.215820312 277.813476562 635.5078125 c 0
 268.4296875 631.41796875 259.821289062 624.37109375 254.096679688 614.3671875 c 0
 232.9609375 592.197265625 192.643554688 566.940429688 139.751953125 601 c 0
 118.984375 615 89.6728515625 579 110.440429688 565 c 0
EndSplineSet
Validated: 524329
EndChar

StartChar: ltr66
Encoding: 66 66 2
Width: 470
GlyphClass: 2
Flags: HMW
HStem: -40 41<187.501 224.001 224.001 225.001 187.501 270.001> 279 40<240.001 306.751 240.001 306.751> 597 43<217.838 224.001 224.001 225.001 217.838 261.501>
VStem: 35 80 334 80 410 80
LayerCount: 2
Fore
SplineSet
110.440429688 565 m 0xf8
 143.6328125 543.423828125 179.940429688 545.778320312 216.419921875 555.919921875 c 1
 174.674804688 512.565429688 140.448242188 456.743164062 127.1171875 399 c 0
 109.086914062 320.899414062 140.0234375 293.615234375 215.196289062 284.09375 c 1
 132.750976562 244.515625 75.5126953125 175.474609375 57.8564453125 99 c 0
 28.998046875 -26 110.766601562 -40 215.766601562 -40 c 0
 305.766601562 -40 508.701171875 81 536.174804688 200 c 0
 548.41015625 253 468.41015625 253 456.174804688 200 c 0xf4
 437.012695312 117 300.231445312 1 225.231445312 1 c 2
 224.231445312 1 l 2
 151.231445312 1 121.00390625 26 137.856445312 99 c 0
 157.018554688 182 229.413085938 279 364.413085938 279 c 0
 377.913085938 279 386.971679688 289 389.280273438 299 c 0
 391.588867188 309 387.147460938 319 373.647460938 319 c 0
 253.647460938 319 188.186523438 317 207.1171875 399 c 0
 223.970703125 472 288.829101562 597 362.829101562 597 c 0
 435.829101562 597 466.288085938 573 448.973632812 498 c 0
 436.737304688 445 516.737304688 445 528.973632812 498 c 0
 558.754882812 627 476.756835938 640 372.756835938 640 c 2
 371.756835938 640 l 2
 359.431640625 640 346.381835938 637.775390625 332.967773438 633.610351562 c 0
 268.189453125 615.961914062 186.65625 569.854492188 139.751953125 601 c 0
 118.984375 615 89.6728515625 579 110.440429688 565 c 0xf8
EndSplineSet
Validated: 524329
EndChar

StartChar: ltr67
Encoding: 67 67 3
Width: 490
GlyphClass: 2
Flags: HMW
VStem: 110 80 273 80 435 70
LayerCount: 2
Fore
SplineSet
111.440429688 565 m 0
 162.953125 534.111328125 205.731445312 543.502929688 241.0859375 567.787109375 c 1
 156.17578125 199.999023438 l 2
 143.939453125 146.999023438 223.939453125 146.999023438 236.17578125 199.999023438 c 2
 317.1953125 550.934570312 l 1
 385.360351562 582.407226562 411.349609375 577.591796875 401.516601562 535 c 2
 319.17578125 200 l 2
 306.939453125 147 386.939453125 147 399.17578125 200 c 2
 471.516601562 535 l 2
 472.586914062 539.635742188 473.487304688 544.057617188 474.224609375 548.272460938 c 0
 545.270507812 582.772460938 568.834960938 579.693359375 558.516601562 535 c 0
 499.875976562 281 425.850585938 21 406.22265625 -103 c 0
 397.986328125 -156 479.372070312 -150 487.607421875 -97 c 0
 506.7734375 25 570.337890625 283 628.516601562 535 c 0
 658.052734375 662.935546875 562.0625 628.784179688 476.034179688 586.983398438 c 1
 467.91015625 646.47265625 396.654296875 624.415039062 326.822265625 592.63671875 c 1
 349.983398438 692.9609375 l 2
 353.33203125 700.96484375 353.8203125 708.54296875 352.186523438 715.162109375 c 0
 350.146484375 727.340820312 341.534179688 734.803710938 330.59765625 737.55078125 c 0
 320.522460938 740.771484375 308.283203125 739.71875 296.532226562 732.481445312 c 0
 284.911132812 726.13671875 275.065429688 714.9765625 271.376953125 699 c 2
 270.796875 696.489257812 l 1
 251.014648438 649.411132812 213.340820312 556.670898438 139.751953125 601 c 0
 117.752929688 614 90.2109375 577 111.440429688 565 c 0
EndSplineSet
Validated: 524329
EndChar

StartChar: ltr97
Encoding: 97 97 4
Width: 500
GlyphClass: 2
Flags: HMW
HStem: 279 40<110 269.5 190 269.5 139 274.5> 359 40
VStem: 110 80<-26.5 279 0 279> 410 80<-26.5 86.5>
LayerCount: 2
Fore
SplineSet
190 0 m 2
 254.412109375 279 l 1
 423.412109375 279 449.940429688 173 410 0 c 0
 397.763671875 -53 477.763671875 -53 490 0 c 0
 542.407226562 227 462.646484375 319 223.646484375 319 c 0
 201.646484375 319 179.491210938 301 174.412109375 279 c 2
 110 0 l 2
 97.763671875 -53 177.763671875 -53 190 0 c 2
110.440429688 565 m 0
 154.87109375 536.2421875 197.298828125 528.627929688 233.223632812 533.744140625 c 1
 202.115234375 399.000976562 l 2
 197.036132812 377.000976562 210.880859375 359.000976562 232.880859375 359.000976562 c 0
 501.880859375 359.000976562 601.739257812 484.000976562 628.520507812 600.000976562 c 0
 640.755859375 653.000976562 560.755859375 653.000976562 548.520507812 600.000976562 c 0
 528.204101562 512.000976562 466.115234375 399.000976562 282.115234375 399.000976562 c 1
 327.453125 595.379882812 l 2
 331.680664062 605.759765625 331.108398438 615.282226562 327.365234375 622.868164062 c 0
 324.7421875 628.890625 320.163085938 633.301757812 314.475585938 636.1015625 c 0
 304.450195312 641.571289062 290.9609375 642.215820312 277.813476562 635.5078125 c 0
 268.4296875 631.41796875 259.821289062 624.37109375 254.096679688 614.3671875 c 0
 232.9609375 592.197265625 192.643554688 566.940429688 139.751953125 601 c 0
 118.984375 615 89.6728515625 579 110.440429688 565 c 0
EndSplineSet
Validated: 524329
EndChar

StartChar: ltr98
Encoding: 98 98 5
Width: 470
GlyphClass: 2
Flags: HMW
HStem: -40 41<187.501 224.001 224.001 225.001 187.501 270.001> 279 40<240.001 306.751 240.001 306.751> 597 43<217.838 224.001 224.001 225.001 217.838 261.501>
VStem: 35 80 334 80 410 80
LayerCount: 2
Fore
SplineSet
110.440429688 565 m 0xf8
 143.6328125 543.423828125 179.940429688 545.778320312 216.419921875 555.919921875 c 1
 174.674804688 512.565429688 140.448242188 456.743164062 127.1171875 399 c 0
 109.086914062 320.899414062 140.0234375 293.615234375 215.196289062 284.09375 c 1
 132.750976562 244.515625 75.5126953125 175.474609375 57.8564453125 99 c 0
 28.998046875 -26 110.766601562 -40 215.766601562 -40 c 0
 305.766601562 -40 508.701171875 81 536.174804688 200 c 0
 548.41015625 253 468.41015625 253 456.174804688 200 c 0xf4
 437.012695312 117 300.231445312 1 225.231445312 1 c 2
 224.231445312 1 l 2
 151.231445312 1 121.00390625 26 137.856445312 99 c 0
 157.018554688 182 229.413085938 279 364.413085938 279 c 0
 377.913085938 279 386.971679688 289 389.280273438 299 c 0
 391.588867188 309 387.147460938 319 373.647460938 319 c 0
 253.647460938 319 188.186523438 317 207.1171875 399 c 0
 223.970703125 472 288.829101562 597 362.829101562 597 c 0
 435.829101562 597 466.288085938 573 448.973632812 498 c 0
 436.737304688 445 516.737304688 445 528.973632812 498 c 0
 558.754882812 627 476.756835938 640 372.756835938 640 c 2
 371.756835938 640 l 2
 359.431640625 640 346.381835938 637.775390625 332.967773438 633.610351562 c 0
 268.189453125 615.961914062 186.65625 569.854492188 139.751953125 601 c 0
 118.984375 615 89.6728515625 579 110.440429688 565 c 0xf8
EndSplineSet
Validated: 524329
EndChar

StartChar: ltr99
Encoding: 99 99 6
Width: 490
GlyphClass: 2
Flags: HMW
VStem: 110 80 273 80 435 70
LayerCount: 2
Fore
SplineSet
111.440429688 565 m 0
 162.953125 534.111328125 205.731445312 543.502929688 241.0859375 567.787109375 c 1
 156.17578125 199.999023438 l 2
 143.939453125 146.999023438 223.939453125 146.999023438 236.17578125 199.999023438 c 2
 317.1953125 550.934570312 l 1
 385.360351562 582.407226562 411.349609375 577.591796875 401.516601562 535 c 2
 319.17578125 200 l 2
 306.939453125 147 386.939453125 147 399.17578125 200 c 2
 471.516601562 535 l 2
 472.586914062 539.635742188 473.487304688 544.057617188 474.224609375 548.272460938 c 0
 545.270507812 582.772460938 568.834960938 579.693359375 558.516601562 535 c 0
 499.875976562 281 425.850585938 21 406.22265625 -103 c 0
 397.986328125 -156 479.372070312 -150 487.607421875 -97 c 0
 506.7734375 25 570.337890625 283 628.516601562 535 c 0
 658.052734375 662.935546875 562.0625 628.784179688 476.034179688 586.983398438 c 1
 467.91015625 646.47265625 396.654296875 624.415039062 326.822265625 592.63671875 c 1
 349.983398438 692.9609375 l 2
 353.33203125 700.96484375 353.8203125 708.54296875 352.186523438 715.162109375 c 0
 350.146484375 727.340820312 341.534179688 734.803710938 330.59765625 737.55078125 c 0
 320.522460938 740.771484375 308.283203125 739.71875 296.532226562 732.481445312 c 0
 284.911132812 726.13671875 275.065429688 714.9765625 271.376953125 699 c 2
 270.796875 696.489257812 l 1
 251.014648438 649.411132812 213.340820312 556.670898438 139.751953125 601 c 0
 117.752929688 614 90.2109375 577 111.440429688 565 c 0
EndSplineSet
Validated: 524329
EndChar

StartChar: ltr100
Encoding: 100 100 7
Width: 500
GlyphClass: 2
Flags: HMW
HStem: -140 41<224 224> 251 44
VStem: 110 80 343 51
LayerCount: 2
Fore
SplineSet
343.071289062 254.701171875 m 1
 382.40234375 232.009765625 384.645507812 180.387695312 370.704101562 120 c 0
 347.848632812 21 250.913085938 -100 203.14453125 -99 c 2
 201.14453125 -99 l 2
 166.913085938 -100 151.763671875 -53 175.229492188 -12 c 1
 175.4609375 -11 l 1
 228.321289062 85.8154296875 284.375976562 173.530273438 343.071289062 254.701171875 c 1
378.416015625 302.397460938 m 1
 453.626953125 401.46484375 532.850585938 490.9609375 614.979492188 575.998046875 c 0
 648.400390625 610.274414062 620.921875 647.727539062 587.666992188 639.734375 c 1
 521.3671875 636.256835938 485.802734375 599.799804688 395.213867188 615.997070312 c 0
 360.061523438 623.997070312 348.75390625 626.997070312 307.524414062 638.997070312 c 0
 283.909179688 644.997070312 254.522460938 625.997070312 248.520507812 599.997070312 c 2
 243.93359375 580.129882812 l 1
 207.823242188 582.661132812 164.919921875 571.791015625 139.750976562 600.998046875 c 0
 123.907226562 618.998046875 88.98046875 588.998046875 104.594726562 569.998046875 c 0
 144.626953125 524.39453125 213.171875 581.0078125 223.934570312 488.444335938 c 0
 223.954101562 481.6484375 225.783203125 476.0390625 228.883789062 471.616210938 c 0
 236.801757812 458.974609375 252.977539062 456.296875 268.517578125 460.9140625 c 0
 277.498046875 463.299804688 286.279296875 468.25 293.15625 475.763671875 c 0
 300.33984375 483.163085938 305.385742188 492.6875 306.295898438 503.736328125 c 2
 325.518554688 586.999023438 l 1
 329.287109375 585.999023438 341.826171875 583.999023438 370.440429688 577.999023438 c 1
 371.440429688 577.999023438 l 1
 444.3203125 564.297851562 482.002929688 575.000976562 523.266601562 583.1015625 c 1
 446.127929688 500.213867188 373.595703125 412.622070312 304.912109375 317.047851562 c 1
 270.521484375 316.755859375 227.997070312 309.720703125 176.10546875 295 c 1
 143.180664062 278 158.022460938 234 191.947265625 251 c 1
 221.91015625 259.547851562 247.525390625 264.471679688 269.296875 266.256835938 c 1
 215.6328125 187.819335938 164.328125 103.953125 115 13 c 0
 51.1435546875 -99 140.215820312 -142 192.677734375 -140 c 0
 250.446289062 -141 390.536132812 -15 417.0859375 100 c 0
 439.846679688 198.587890625 435.287109375 272.431640625 378.416015625 302.397460938 c 1
EndSplineSet
Validated: 524329
EndChar

StartChar: ltr101
Encoding: 101 101 8
Width: 570
GlyphClass: 2
Flags: HMW
HStem: 560 80<356.893 556.5>
VStem: 397 70<-23.5 0> 400 79.9308
LayerCount: 2
Fore
SplineSet
532.518554688 574 m 2xa0
 397 0 l 2
 386.149414062 -47 456.149414062 -47 467 0 c 2xc0
 611.743164062 570.944335938 l 1
 659.286132812 560 l 1
 712.286132812 560 730.755859375 640 677.755859375 640 c 2
 504.6484375 640 l 2
 498.826171875 643.446289062 490.569335938 643.646484375 481.293945312 638 c 0
 408.752929688 614 254.474609375 132 212.39453125 97 c 1
 327.126953125 593.9609375 l 2
 330.475585938 601.96484375 330.962890625 609.541992188 329.329101562 616.161132812 c 0
 327.2890625 628.33984375 318.677734375 635.802734375 307.740234375 638.549804688 c 0
 297.665039062 641.770507812 285.42578125 640.717773438 273.67578125 633.48046875 c 0
 266.62890625 629.633789062 260.235351562 624.016601562 255.471679688 616.62890625 c 0
 233.809570312 593.314453125 193.784179688 566.206054688 139.751953125 601 c 0
 118.984375 615 89.6728515625 579 110.440429688 565 c 0
 154.465820312 536.432617188 197.08203125 528.96484375 233.321289062 534.162109375 c 1
 110 0 l 2
 102.381835938 -33 142.995117188 -52 171.536132812 -28 c 0
 284.524414062 63.7958984375 409.509765625 550.405273438 492.823242188 598.319335938 c 1
 537.859375 587.952148438 l 1
 535.537109375 583.801757812 533.708007812 579.151367188 532.518554688 574 c 2xa0
EndSplineSet
Validated: 524329
EndChar

StartChar: ltr102
Encoding: 102 102 9
Width: 470
GlyphClass: 2
Flags: HMW
HStem: -40 41 298.023 43.1336
VStem: 35 80<214.501 299.001 214.501 310.001> 410 80<158.501 226.501>
LayerCount: 2
Fore
SplineSet
110.440429688 565 m 0
 160.178710938 532.982421875 245.604492188 530.918945312 310.584960938 543.962890625 c 1
 263.763671875 341.157226562 l 1
 226.930664062 340.438476562 190.09765625 339.719726562 153.264648438 339.000976562 c 0
 131.264648438 339.000976562 109.109375 321.000976562 104.030273438 299.000976562 c 0
 36.84765625 8.0009765625 45.765625 -39.9990234375 230.765625 -39.9990234375 c 0
 305.765625 -39.9990234375 508.700195312 81.0009765625 536.173828125 200.000976562 c 0
 548.41015625 253.000976562 468.41015625 253.000976562 456.173828125 200.000976562 c 0
 437.01171875 117.000976562 300.231445312 1.0009765625 225.231445312 1.0009765625 c 0
 76.2314453125 1.0009765625 145.012695312 130.000976562 184.030273438 299.000976562 c 1
 253.8046875 298.024414062 l 1
 200.9296875 69.0009765625 l 2
 188.694335938 16.0009765625 268.694335938 16.0009765625 280.9296875 69.0009765625 c 2
 333.546875 296.908203125 l 1
 398.336914062 296.000976562 l 2
 430.336914062 296.000976562 441.418945312 344.000976562 409.418945312 344.000976562 c 2
 344.125 342.7265625 l 1
 402.454101562 595.379882812 l 2
 406.681640625 605.759765625 406.109375 615.282226562 402.366210938 622.868164062 c 0
 399.743164062 628.890625 395.1640625 633.301757812 389.4765625 636.1015625 c 0
 379.451171875 641.571289062 365.961914062 642.215820312 352.814453125 635.5078125 c 0
 343.873046875 631.611328125 335.635742188 625.029296875 329.92578125 615.762695312 c 0
 300.077148438 590.056640625 193.995117188 564.981445312 139.751953125 601 c 0
 118.984375 615 89.6728515625 579 110.440429688 565 c 0
EndSplineSet
Validated: 524329
EndChar

StartChar: ltr103
Encoding: 103 103 10
Width: 600
GlyphClass: 2
Flags: HMW
HStem: -40 41 600 40
VStem: 110 156 410.922 189.078 416 80
LayerCount: 2
Fore
SplineSet
110.440429688 565 m 0xe8
 154.465820312 536.432617188 197.08203125 528.966796875 233.3203125 534.1640625 c 1
 109.999023438 0.001953125 l 2
 104.919921875 -21.998046875 118.764648438 -39.998046875 140.764648438 -39.998046875 c 0
 325.918945312 -39.998046875 458.239257812 12.896484375 573.079101562 371.293945312 c 1
 643.348632812 415.727539062 712.487304688 487.241210938 742.213867188 616.000976562 c 1xf0
 741.141601562 659.000976562 673.447265625 643.000976562 674.520507812 600.000976562 c 1
 655.012695312 515.50390625 625.424804688 439.62890625 584.09765625 406.799804688 c 1
 601.236328125 463.79296875 618.00390625 527.905273438 634.520507812 600 c 0
 639.599609375 622 625.755859375 640 603.755859375 640 c 0
 460.73828125 640 354.74609375 622.639648438 313.594726562 535.348632812 c 1
 327.126953125 593.9609375 l 2
 330.475585938 601.96484375 330.962890625 609.541992188 329.329101562 616.161132812 c 0
 327.2890625 628.33984375 318.677734375 635.802734375 307.740234375 638.549804688 c 0
 297.665039062 641.770507812 285.42578125 640.717773438 273.67578125 633.48046875 c 0
 266.62890625 629.633789062 260.235351562 624.016601562 255.471679688 616.62890625 c 0
 233.809570312 593.314453125 193.784179688 566.206054688 139.751953125 601 c 0
 118.984375 615 89.6728515625 579 110.440429688 565 c 0xe8
503.708984375 401.909179688 m 1
 411.190429688 407.9765625 365.419921875 430.637695312 381.203125 499.001953125 c 0
 400.365234375 582.001953125 479.520507812 600.001953125 554.520507812 600.001953125 c 1xe8
 537.6875 526.359375 520.85546875 460.504882812 503.708984375 401.909179688 c 1
490.944335938 359.821289062 m 1
 409.994140625 102.572265625 320.478515625 1.0009765625 190.229492188 1.0009765625 c 1
 296.912109375 463.09375 l 1
 297.861328125 386.66015625 374.733398438 364.096679688 490.944335938 359.821289062 c 1
EndSplineSet
Validated: 524329
EndChar

StartChar: ltr104
Encoding: 104 104 11
Width: 500
GlyphClass: 2
Flags: HMW
HStem: 279 40
VStem: 110 80<579.636 587.002 502.739 600.003 579.636 579.636> 409.996 80.0038
LayerCount: 2
Fore
SplineSet
446.018554688 -39.4580078125 m 0
 464.650390625 -37.3818359375 484.40625 -24.2265625 490 0.0029296875 c 0
 525.251953125 152.697265625 501.34375 241.342773438 437.006835938 284.8984375 c 1
 515.686523438 303.469726562 575.493164062 370.314453125 628.520507812 600.002929688 c 0
 633.96484375 623.5859375 621.1484375 636.67578125 604.166015625 639.271484375 c 0
 602.251953125 639.747070312 600.118164062 640.002929688 597.755859375 640.002929688 c 0
 524.755859375 640.002929688 490.291015625 599.002929688 395.215820312 616.002929688 c 0
 360.0625 624.002929688 348.754882812 627.002929688 307.525390625 639.002929688 c 0
 283.911132812 645.002929688 254.524414062 626.002929688 248.521484375 600.002929688 c 2
 243.819335938 579.635742188 l 1
 207.709960938 582.169921875 164.795898438 571.255859375 139.752929688 601.002929688 c 0
 124.138671875 620.002929688 88.982421875 589.002929688 104.826171875 571.002929688 c 0
 144.393554688 523.424804688 213.143554688 580.97265625 223.705078125 487.526367188 c 0
 223.7109375 480.6953125 225.541015625 475.059570312 228.655273438 470.619140625 c 0
 236.572265625 457.977539062 252.748046875 455.299804688 268.2890625 459.916992188 c 0
 277.26953125 462.302734375 286.049804688 467.252929688 292.926757812 474.766601562 c 0
 300.110351562 482.166015625 305.15625 491.690429688 306.06640625 502.739257812 c 2
 325.520507812 587.001953125 l 1
 329.2890625 586.001953125 341.827148438 584.001953125 370.442382812 578.001953125 c 1
 371.442382812 578.001953125 l 1
 457.076171875 561.90234375 494.115234375 579.497070312 545.46875 586.97265625 c 1
 489.545898438 351.797851562 435.165039062 319.000976562 298.647460938 319.000976562 c 0
 285.147460938 319.000976562 276.088867188 309.000976562 273.780273438 299.000976562 c 0
 271.470703125 289.000976562 275.912109375 279.000976562 289.412109375 279.000976562 c 0
 427.686523438 279.000976562 447.65625 165.198242188 410.587890625 2.564453125 c 1
 277.015625 12.798828125 160.380859375 68.7939453125 86.3115234375 36 c 0
 33.0009765625 13 51.37890625 -59 103.688476562 -36 c 0
 178.076171875 -4 298.765625 -40 440.765625 -40 c 0
 442.599609375 -40 444.3515625 -39.810546875 446.018554688 -39.4580078125 c 0
EndSplineSet
Validated: 524329
EndChar

StartChar: ltr105
Encoding: 105 105 12
Width: 200
GlyphClass: 2
Flags: HMW
VStem: 95 70<-27.999 -4.99902> 110.337 79.6628
LayerCount: 2
Fore
SplineSet
107.1328125 568 m 0x40
 141.672851562 535.640625 189.94921875 526.486328125 233.651367188 534.133789062 c 1x40
 194.396484375 356.999023438 159.495117188 179.166015625 93.845703125 -4.9990234375 c 1
 83.2255859375 -50.9990234375 153.225585938 -50.9990234375 163.845703125 -4.9990234375 c 1x80
 234.63671875 194.620117188 280.5625 392.286132812 326.864257812 592.82421875 c 0
 330.114257812 600.442382812 330.823242188 607.708984375 329.600585938 614.16796875 c 0
 328.203125 627.5546875 319.229492188 635.6875 307.674804688 638.56640625 c 0
 295.6640625 642.540039062 280.54296875 640.418945312 266.706054688 628.90625 c 0
 263.471679688 626.3828125 260.482421875 623.418945312 257.860351562 620.013671875 c 0
 234.700195312 594.422851562 179.184570312 564.9375 139.751953125 601 c 0
 121.676757812 618 89.0576171875 585 107.1328125 568 c 0x40
EndSplineSet
Validated: 524329
EndChar

StartChar: ltr106
Encoding: 106 106 13
Width: 500
GlyphClass: 2
Flags: HMW
HStem: -40 40 -38 76
LayerCount: 2
Fore
SplineSet
110.440429688 565 m 0x80
 169.399414062 527.081054688 286.03125 382.3828125 526.55078125 516.521484375 c 1
 471.955078125 329.34765625 370.53515625 92.5224609375 280 0.0009765625 c 1x80
 225 0.0009765625 169.237304688 66.0009765625 71.7734375 38.0009765625 c 0
 17.310546875 23.0009765625 23.533203125 -53.9990234375 78.2275390625 -37.9990234375 c 0x40
 164.768554688 -13.9990234375 219.765625 -39.9990234375 290.765625 -39.9990234375 c 0
 303.765625 -39.9990234375 316.150390625 -33.9990234375 326.458984375 -23.9990234375 c 0
 425.973632812 77.7080078125 576.435546875 383.201171875 626.655273438 592.08203125 c 0
 629.399414062 598.497070312 630.33984375 604.934570312 629.786132812 610.9296875 c 0
 629.625 623.477539062 623.250976562 631.927734375 614.10546875 636.28125 c 0
 603.86328125 642.318359375 589.568359375 642.834960938 574.002929688 633.658203125 c 0
 570.63671875 631.8515625 567.416015625 629.643554688 564.446289062 627.034179688 c 0
 323.03515625 449.2578125 196.665039062 563.208007812 139.751953125 601 c 0
 118.984375 615 89.6728515625 579 110.440429688 565 c 0x80
EndSplineSet
Validated: 524329
EndChar

StartChar: ltr107
Encoding: 107 107 14
Width: 500
GlyphClass: 2
Flags: HMW
HStem: -40 42 589 20G 598 42 608.288 21G
VStem: 111 78 410 80
LayerCount: 2
Fore
SplineSet
110.440429688 565 m 0x9c
 154.87109375 536.2421875 197.297851562 528.625976562 233.221679688 533.7421875 c 1
 225.201171875 498.999023438 l 2
 217.3515625 464.999023438 261.196289062 446.999023438 290.198242188 472.999023438 c 0
 343.7421875 522.999023438 364.056640625 597.999023438 438.056640625 597.999023438 c 0
 512.056640625 597.999023438 512.96484375 445.999023438 479.02734375 298.999023438 c 0
 445.08984375 151.999023438 374.459960938 1.9990234375 300.459960938 1.9990234375 c 2
 299.459960938 1.9990234375 l 2
 232.459960938 1.9990234375 189.541015625 49.9990234375 209.544921875 88.9990234375 c 0
 234.319335938 139.999023438 162.16796875 160.999023438 136.162109375 108.999023438 c 0
 104.15625 43.9990234375 172.762695312 -40.0009765625 290.762695312 -40.0009765625 c 0
 374.762695312 -40.0009765625 500.618164062 45.9990234375 559.02734375 298.999023438 c 0
 617.4375 551.999023438 531.75390625 639.999023438 447.75390625 639.999023438 c 2
 446.75390625 639.999023438 l 2xac
 376.048828125 639.999023438 337.704101562 614.240234375 330.569335938 608.885742188 c 1
 330.362304688 607.987304688 l 1
 330.374023438 608.243164062 330.383789062 608.498046875 330.390625 608.751953125 c 1
 330.149414062 608.568359375 329.94921875 608.413085938 329.791992188 608.288085938 c 1
 329.950195312 608.424804688 330.151367188 608.600585938 330.393554688 608.817382812 c 0
 330.517578125 613.96484375 329.41796875 618.708007812 327.365234375 622.868164062 c 0
 324.7421875 628.890625 320.163085938 633.301757812 314.475585938 636.1015625 c 0
 304.450195312 641.571289062 290.9609375 642.215820312 277.813476562 635.5078125 c 0
 268.4296875 631.41796875 259.821289062 624.37109375 254.096679688 614.3671875 c 0
 232.9609375 592.197265625 192.643554688 566.940429688 139.751953125 601 c 0
 118.984375 615 89.6728515625 579 110.440429688 565 c 0x9c
330.5703125 608.884765625 m 2
 330.508789062 608.837890625 330.450195312 608.794921875 330.392578125 608.751953125 c 1
 330.393554688 608.7734375 330.393554688 608.794921875 330.393554688 608.81640625 c 0
 330.458007812 608.874023438 330.526367188 608.934570312 330.596679688 608.999023438 c 1xcc
 330.5703125 608.884765625 l 2
EndSplineSet
Validated: 524325
EndChar

StartChar: ltr108
Encoding: 108 108 15
Width: 380
GlyphClass: 2
Flags: HMW
HStem: 160 80<-26.5 31.5894>
LayerCount: 2
Fore
SplineSet
304.168945312 61.37109375 m 1
 244.530273438 141.254882812 120.407226562 240 55.408203125 240 c 0
 2.408203125 240 -16.0615234375 160 36.9384765625 160 c 0
 100.1171875 160 244.469726562 68.3974609375 289.965820312 -19.5703125 c 1
 299.36328125 -51.904296875 359.5234375 -45.380859375 370 0 c 2
 508.520507812 600 l 2
 520.756835938 653 440.756835938 653 428.520507812 600 c 2
 304.168945312 61.37109375 l 1
EndSplineSet
Validated: 524329
EndChar

StartChar: ltr109
Encoding: 109 109 16
Width: 470
GlyphClass: 2
Flags: HMW
HStem: -40 41<115 200.5> 600 40<234 267>
VStem: 35 80<1 91 1 92.3403> 334 80<472.5 536>
LayerCount: 2
Fore
SplineSet
110.440429688 565 m 0
 146.137695312 541.963867188 197.865234375 555.546875 249.642578125 571.87109375 c 1
 88.990234375 434.07421875 77.63671875 184.680664062 35 0 c 0
 29.9208984375 -22 43.765625 -40 65.765625 -40 c 0
 316.765625 -40 396.150390625 -34 529.94140625 186 c 0
 560.485351562 236 492.94921875 264 462.40625 214 c 0
 351.849609375 34 299.23046875 1 115.23046875 1 c 1
 156.787109375 181 117.510742188 496 372.520507812 600 c 1
 438.520507812 600 466.287109375 573 449.203125 499 c 0
 436.966796875 446 516.966796875 446 529.203125 499 c 0
 558.75390625 627 477.755859375 640 372.755859375 640 c 0
 305.755859375 640 196.978515625 563 139.751953125 601 c 0
 118.984375 615 89.6728515625 579 110.440429688 565 c 0
EndSplineSet
Validated: 524329
EndChar

StartChar: ltr110
Encoding: 110 110 17
Width: 500
GlyphClass: 2
Flags: HMW
VStem: 47 80<253 335.015>
LayerCount: 2
Fore
SplineSet
250.465820312 610.719726562 m 0
 228.521484375 589.6171875 189.755859375 568.799804688 139.751953125 601 c 0
 118.984375 615 89.6728515625 579 110.440429688 565 c 0
 142.735351562 544.096679688 173.973632812 534.364257812 202.423828125 532.572265625 c 1
 165.40625 460.853515625 132.659179688 371.030273438 116.029296875 299 c 0
 91.5576171875 193 84.7744140625 51 111.151367188 -21 c 0
 120.91796875 -48 168.072265625 -43 185.229492188 -12 c 0
 306.790039062 207 384.356445312 491 452.669921875 553 c 1
 451.653320312 384 456.557617188 193 499.305664062 -16 c 1
 512.995117188 -52 573.61328125 -19 560.694335938 16 c 1
 519.40625 214 524.270507812 404 526.598632812 609 c 0
 526.524414062 639 487.064453125 650 461.5234375 626 c 0
 348.744140625 523 267.869140625 229 171.928710938 56 c 1
 162.931640625 82 174.790039062 207 196.029296875 299 c 0
 213.799804688 375.971679688 241.642578125 484.443359375 276.3515625 547.109375 c 1
 293.328125 555.590820312 307.46875 567.096679688 317.903320312 580.000976562 c 0
 354.842773438 623.998046875 301.776367188 662.505859375 264.168945312 625.52734375 c 0
 262.646484375 624.478515625 261.122070312 623.305664062 259.600585938 622.000976562 c 0
 256.564453125 618.4609375 253.516601562 614.694335938 250.465820312 610.719726562 c 0
EndSplineSet
Validated: 524329
EndChar

StartChar: ltr111
Encoding: 111 111 18
Width: 470
GlyphClass: 2
Flags: HMW
HStem: 598 42<263.001 299.001 299.001 300.001 257.001 337.501>
VStem: 110.462 79.5377 411 79
LayerCount: 2
Fore
SplineSet
213.086914062 100 m 2
 259.26171875 300 l 2
 293.19921875 447 364.060546875 598 438.060546875 598 c 0
 513.060546875 598 513.19921875 447 479.26171875 300 c 2
 408.922851562 -9 l 1
 332.229492188 -25 238.008789062 78 141.3125 36 c 0
 88.001953125 13 105.379882812 -59 158.689453125 -36 c 0
 250.924804688 4 335.456054688 -63 449.997070312 -39 c 0
 468.920898438 -35 485.614257812 -19 490.000976562 0 c 2
 559.26171875 300 l 2
 617.670898438 553 532.756835938 640 447.756835938 640 c 2
 446.756835938 640 l 2
 362.756835938 640 237.670898438 553 179.26171875 300 c 2
 158.26953125 207.073242188 l 1
 121.888671875 240.487304688 65.42578125 247.139648438 28.7919921875 233 c 0
 -26.0556640625 212 -11.9091796875 139 41.7080078125 159 c 0
 69.1435546875 169.6015625 125.512695312 173.895507812 143.748046875 142.791992188 c 1
 133.85546875 99 l 2
 122.620117188 46 201.850585938 47 213.086914062 100 c 2
EndSplineSet
Validated: 524329
EndChar

StartChar: ltr112
Encoding: 112 112 19
Width: 449
GlyphClass: 2
Flags: HMW
HStem: -40 40 360 41.0024
VStem: 27 80<299.001 307.614 299.001 320.403> 216 70
LayerCount: 2
Fore
SplineSet
261.112304688 360 m 0
 314.34375 361 390.119140625 451.001953125 401.201171875 499.001953125 c 2
 401.893554688 502.001953125 l 1
 414.5703125 585.591796875 381.297851562 609.590820312 333.5625 617.081054688 c 0
 330.83203125 620.08984375 326.573242188 622.001953125 320.598632812 622.001953125 c 0
 313.669921875 622.001953125 306.893554688 621.368164062 300.268554688 620.147460938 c 0
 296.012695312 620.303710938 292.106445312 619.24609375 288.700195312 617.381835938 c 0
 235.788085938 601.809570312 193.071289062 548.5625 160.325195312 483.616210938 c 1
 144.296875 529.431640625 140.784179688 582.716796875 122.059570312 611.000976562 c 0
 108.676757812 631.000976562 71.443359375 604.000976562 84.595703125 583.000976562 c 0
 107.368164062 549.131835938 113.471679688 485.71875 138.450195312 435.147460938 c 1
 120.030273438 389.66015625 105.912109375 341.8046875 96.0302734375 299.000976562 c 0
 67.0947265625 178.000976562 101.765625 -39.9990234375 236.765625 -39.9990234375 c 2
 390.534179688 -40.9990234375 l 2
 412.534179688 -40.9990234375 434.690429688 -22.9990234375 439.76953125 -0.9990234375 c 2
 577.521484375 600.000976562 l 2
 589.756835938 653.000976562 509.756835938 653.000976562 497.521484375 600.000976562 c 2
 359 0.0009765625 l 1
 246 0.0009765625 l 2
 127 0.0009765625 157.252929688 222.000976562 176.030273438 299.000976562 c 0
 180.006835938 316.2265625 184.079101562 344.53515625 189.936523438 376.713867188 c 1
 207.955078125 366.348632812 230.487304688 360.140625 259.138671875 360.002929688 c 0
 259.775390625 359.9765625 260.438476562 360 261.112304688 360 c 0
298.336914062 578.895507812 m 1
 338.862304688 571.504882812 336.33984375 533.384765625 330.739257812 497.00390625 c 0
 327.047851562 481.015625 307.836914062 402.123046875 268.665039062 401.005859375 c 0
 238.194335938 401.16796875 215.94921875 409.469726562 199.301757812 422.83203125 c 1
 215.799804688 494.704101562 243.59375 569.021484375 298.336914062 578.895507812 c 1
EndSplineSet
Validated: 524329
EndChar

StartChar: ltr113
Encoding: 113 113 20
Width: 500
GlyphClass: 2
Flags: HMW
HStem: -39 78 599 41<224.999 323.126 220 349.121>
VStem: 35 80 410 80
LayerCount: 2
Fore
SplineSet
374.00390625 39 m 0
 250.30859375 10 248.393554688 97 120.540039062 24 c 1
 209.655273438 410 288.2890625 599 438.2890625 599 c 0
 536.533203125 599 526.673828125 509.454101562 511.009765625 437.524414062 c 2
 502.115234375 399 l 2
 497.036132812 377 514.497070312 366 534.497070312 366 c 0
 554.497070312 366 577.036132812 377 582.115234375 399 c 2
 629.2890625 599 l 2
 642.166992188 650.640625 568.866210938 653.811523438 550.658203125 606.764648438 c 1
 527.528320312 627.733398438 494.0078125 640 447.755859375 640 c 0
 287.755859375 640 170.750976562 588 35 0 c 0
 28.07421875 -30 60.45703125 -50 89.3818359375 -33 c 0
 254.083007812 61 263.224609375 -64 373.99609375 -39 c 0
 428.997070312 -26 427.774414062 51 374.00390625 39 c 0
EndSplineSet
Validated: 524329
EndChar

StartChar: ltr114
Encoding: 114 114 21
Width: 470
GlyphClass: 2
Flags: HMW
VStem: 110 80
LayerCount: 2
Fore
SplineSet
612.42578125 634.76953125 m 0
 609.205078125 637.987304688 604.376953125 640.000976562 597.755859375 640.000976562 c 0
 524.755859375 640.000976562 490.290039062 599.000976562 395.21484375 616.000976562 c 0
 360.061523438 624.000976562 348.754882812 627.000976562 307.525390625 639.000976562 c 0
 283.91015625 645.000976562 254.5234375 626.000976562 248.521484375 600.000976562 c 2
 244.064453125 580.6953125 l 1
 207.891601562 582.958007812 164.918945312 571.794921875 139.750976562 601.000976562 c 0
 123.90625 619.000976562 88.98046875 589.000976562 104.59375 570.000976562 c 0
 144.42578125 524.625 212.7109375 581.418945312 223.998046875 490.82421875 c 1
 221.7421875 451.010742188 278.83203125 448.850585938 299.458007812 484.34375 c 0
 303.331054688 490.294921875 305.901367188 497.157226562 306.526367188 504.73828125 c 2
 325.517578125 587.000976562 l 1
 329.287109375 586.000976562 341.825195312 584.000976562 370.440429688 578.000976562 c 1
 371.440429688 578.000976562 l 1
 450.784179688 563.083984375 488.411132812 577.09375 534.359375 585.178710938 c 1
 352.868164062 396.1640625 239.170898438 242.736328125 87.451171875 -101.999023438 c 0
 64.4453125 -153.999023438 138.751953125 -169.999023438 161.756835938 -117.999023438 c 0
 316.022460938 234.000976562 422.729492188 380.000976562 614.979492188 576.000976562 c 0
 640.856445312 599.110351562 632.436523438 627.165039062 612.42578125 634.76953125 c 0
EndSplineSet
Validated: 524329
EndChar

StartChar: ltr115
Encoding: 115 115 22
Width: 500
GlyphClass: 2
Flags: HMW
HStem: 670 40
VStem: 196 68 410 80<245.904 600 245.904 245.904>
LayerCount: 2
Fore
SplineSet
136.181640625 278 m 1
 210.485351562 236 219.015625 156 217.008789062 91 c 0
 216.620117188 46 289.083007812 61 288.703125 107 c 0
 291.171875 187 248.94921875 264 151.877929688 320 c 1
 124.801757812 324 109.104492188 282 136.181640625 278 c 1
97.681640625 670 m 0
 346.453125 695 402.564453125 258 408.69140625 -10 c 0
 408.702148438 -10.546875 408.720703125 -11.0859375 408.749023438 -11.6162109375 c 0
 408.836914062 -14.408203125 409.236328125 -16.9931640625 409.908203125 -19.3701171875 c 0
 415.895507812 -42.482421875 442.630859375 -45.2431640625 463.853515625 -34.009765625 c 0
 466.400390625 -32.689453125 468.870117188 -31.1416015625 471.216796875 -29.3662109375 c 0
 481.810546875 -21.494140625 489.850585938 -9.724609375 491.13671875 4.92578125 c 2
 628.520507812 600 l 2
 640.756835938 653 560.756835938 653 548.520507812 600 c 2
 466.771484375 245.904296875 l 1
 418.819335938 502.016601562 300.634765625 729.924804688 102.916015625 710 c 0
 75.455078125 708 69.9892578125 667 97.681640625 670 c 0
EndSplineSet
Validated: 524329
EndChar

StartChar: ltr116
Encoding: 116 116 23
Width: 450
GlyphClass: 2
Flags: HMW
HStem: 156 78 165 70
VStem: 180 100<600.002 633.002 600.002 633.502> 185 80 188.305 81.9138
LayerCount: 2
Fore
SplineSet
295.418945312 109.155273438 m 1x88
 341.213867188 278.057617188 383.094726562 450.1015625 418.521484375 600.001953125 c 0
 433.758789062 666.001953125 333.989257812 667.001953125 318.521484375 600.001953125 c 0xa0
 282.525390625 447.7265625 253.875976562 272.094726562 211.232421875 99.3056640625 c 1x88
 177.185546875 174.580078125 115.951171875 235.000976562 54.25390625 235.000976562 c 0
 7.25390625 235.000976562 -8.90625 165.000976562 38.09375 165.000976562 c 0
 98.1005859375 165.000976562 166.55859375 101.349609375 188.606445312 13.12890625 c 0
 187.56640625 9.416015625 186.518554688 5.7060546875 185.461914062 2 c 0
 170.225585938 -51 249.302734375 -55 264.538085938 -2 c 0x50
 266.276367188 4.099609375 268.010742188 10.2109375 269.740234375 16.3330078125 c 0
 335.452148438 100.975585938 432.7109375 143.421875 494.014648438 156 c 0
 548.553710938 167 550.561523438 245 496.022460938 234 c 0
 434.931640625 222.321289062 358.15234375 173.356445312 295.418945312 109.155273438 c 1x88
EndSplineSet
Validated: 524329
EndChar

StartChar: ltr117
Encoding: 117 117 24
Width: 500
GlyphClass: 2
Flags: HMW
HStem: -40 41
VStem: 110 80
LayerCount: 2
Fore
SplineSet
110.440429688 565 m 0
 154.87109375 536.2421875 197.298828125 528.626953125 233.223632812 533.743164062 c 1
 156.172851562 200 l 2
 129.853515625 86 170.764648438 -40 440.764648438 -40 c 0
 462.764648438 -40 484.919921875 -22 489.999023438 0 c 2
 611.205078125 525 l 2
 619.169921875 559.499023438 588.053710938 571.541992188 561.984375 561.127929688 c 0
 560.391601562 560.606445312 558.74609375 559.903320312 557.0546875 559 c 0
 437.5859375 492 372.198242188 460 311.265625 365 c 0
 279.953125 316 346.796875 285 378.33984375 335 c 0
 421.2265625 401.123046875 451.555664062 446.229492188 524.266601562 494.946289062 c 1
 410.23046875 1.0009765625 l 1
 226.23046875 1.0009765625 215.856445312 112.000976562 236.172851562 200.000976562 c 2
 329.2890625 599.000976562 l 2
 335.21484375 622.76171875 322.896484375 636.260742188 306.09375 639.328125 c 0
 297.309570312 641.465820312 287.091796875 640.440429688 277.110351562 635.142578125 c 0
 268.331054688 631.034179688 260.283203125 624.31640625 254.665039062 614.96875 c 0
 233.688476562 592.659179688 193.12109375 566.6328125 139.751953125 601 c 0
 118.984375 615 89.6728515625 579 110.440429688 565 c 0
EndSplineSet
Validated: 524329
EndChar

StartChar: ltr118
Encoding: 118 118 25
Width: 500
GlyphClass: 2
Flags: HMW
HStem: 571 68
VStem: 258 82.4151 258 91
LayerCount: 2
Fore
SplineSet
110.440429688 565 m 0xc0
 188.297851562 514.606445312 260.005859375 529.137695312 301.342773438 563.330078125 c 1
 328.966796875 511.143554688 316.491210938 351.370117188 327.326171875 290.28515625 c 1
 304.557617188 167.626953125 291.641601562 128.69921875 258.231445312 1.0009765625 c 0
 242.37890625 -58.9990234375 332.686523438 -61.9990234375 348.76953125 -0.9990234375 c 0xa0
 382.452148438 127.967773438 385.359375 169.114257812 407.87109375 292.178710938 c 1
 454.69921875 366.45703125 530.590820312 557.6640625 590.827148438 571.000976562 c 0
 638.59765625 583.000976562 637.296875 651.000976562 588.526367188 639.000976562 c 0
 517.0625 624.000976562 400.348632812 400.000976562 388.192382812 382.000976562 c 1
 382.120117188 403.001953125 369.439453125 566.547851562 327.828125 621.888671875 c 1
 318.237304688 643.30078125 283.893554688 650.26953125 259.138671875 620 c 0
 239.828125 597 197.209960938 564 139.751953125 601 c 0
 118.984375 615 89.6728515625 579 110.440429688 565 c 0xc0
EndSplineSet
Validated: 524329
EndChar

StartChar: ltr119
Encoding: 119 119 26
Width: 500
GlyphClass: 2
Flags: HMW
HStem: -41 42 398 41 560 41 560 70 598 42<217.077 239 217.077 239>
VStem: 35 80 185 70<499 499> 410 80
LayerCount: 2
Fore
SplineSet
110.440429688 565 m 0xe7
 141.552734375 544.922851562 184.83984375 552.661132812 229.725585938 565.788085938 c 1
 179.977539062 512.251953125 133.491210938 426.616210938 104.028320312 298.999023438 c 0
 45.619140625 45.9990234375 130.763671875 -40.0009765625 235.763671875 -40.0009765625 c 2
 268.533203125 -41.0009765625 l 1
 269.533203125 -41.0009765625 l 2
 374.533203125 -41.0009765625 500.619140625 45.9990234375 559.028320312 298.999023438 c 0
 589.165039062 429.53515625 575.883789062 505.764648438 545.801757812 548.977539062 c 1
 554.931640625 555.91796875 565.616210938 559.999023438 579.286132812 559.999023438 c 0
 626.286132812 559.999023438 642.446289062 629.999023438 595.446289062 629.999023438 c 0xd7
 560.559570312 629.999023438 542.266601562 606.254882812 522.234375 574.186523438 c 1
 496.547851562 594.536132812 465.625976562 600.999023438 438.751953125 600.999023438 c 0xe7
 362.751953125 600.999023438 319.056640625 571.999023438 300.43359375 499.999023438 c 2
 299.971679688 497.999023438 l 2
 286.041992188 428.999023438 315.885742188 397.999023438 391.885742188 397.999023438 c 0
 398.885742188 397.999023438 405.116210938 398.999023438 412.040039062 402.999023438 c 0
 451.387695312 421.639648438 474.913085938 448.203125 492.572265625 474.190429688 c 1
 498.978515625 428.287109375 494.7734375 367.194335938 479.029296875 299 c 0
 445.091796875 152 374.23046875 1 278.23046875 1 c 2
 277.23046875 1 l 1
 246 0 l 2
 150 0 150.091796875 152 184.029296875 299 c 0
 217.966796875 446 288.059570312 598 363.059570312 598 c 0
 391.059570312 598 400.755859375 640 372.755859375 640 c 0xcf
 356.91015625 640 339.663085938 636.94140625 321.709960938 630.326171875 c 0
 258.985351562 610.9453125 183.975585938 571.633789062 139.751953125 601 c 0
 118.984375 615 89.6728515625 579 110.440429688 565 c 0xe7
482.900390625 514.106445312 m 1
 461.87109375 486.624023438 433.953125 459.403320312 391.3515625 439 c 1
 356.3515625 439 365.200195312 473 370.203125 499 c 0
 377.66796875 527 383.286132812 560 429.286132812 560 c 0xe7
 453.875976562 560 471.923828125 543.170898438 482.900390625 514.106445312 c 1
EndSplineSet
Validated: 524329
EndChar

StartChar: ltr120
Encoding: 120 120 27
Width: 500
GlyphClass: 2
Flags: HMW
HStem: -38 76
LayerCount: 2
Fore
SplineSet
135.69921875 68 m 0
 264.25390625 235 308.885742188 398 367.897460938 515 c 1
 384.423828125 396 395.715820312 237 400.307617188 -3 c 1
 341.615234375 -6 245.467773438 67 146.7734375 38 c 0
 92.0791015625 22 98.533203125 -54 153.2265625 -38 c 0
 245.4609375 -11 338.379882812 -46 442.765625 -40 c 0
 467.99609375 -39 491.767578125 -14 491.30859375 10 c 0
 485.487304688 262 450.041015625 416 423.752929688 614 c 0
 418.372070312 647 363.91015625 645 346.060546875 611 c 0
 250.426757812 422 198.641601562 267 74.4716796875 106 c 0
 38.62109375 59 99.8486328125 21 135.69921875 68 c 0
EndSplineSet
Validated: 524329
EndChar

StartChar: ltr121
Encoding: 121 121 28
Width: 500
GlyphClass: 2
Flags: HMW
HStem: 424 40 560 70 598 42
VStem: 110 92
LayerCount: 2
Fore
SplineSet
531.755859375 640 m 2xb0
 480.751953125 640.001953125 l 1
 479.751953125 640.001953125 l 2xb0
 381.290039062 638.001953125 330.884765625 424.001953125 430.884765625 424.001953125 c 0
 436.827148438 424.001953125 442.987304688 425.130859375 449.3125 427.18359375 c 1
 380.575195312 300.204101562 258.127929688 145.231445312 227.393554688 110.000976562 c 1
 245.079101562 178.059570312 327.518554688 433.889648438 329.55859375 602.075195312 c 0
 331.473632812 610.732421875 330.026367188 618.561523438 326.288085938 624.8515625 c 0
 321.7734375 634.05859375 313.09375 638.875976562 303.088867188 639.92578125 c 0
 294.965820312 641.190429688 285.846679688 639.827148438 276.924804688 635.04296875 c 0
 267.323242188 630.536132812 258.642578125 623.171875 253.227539062 613.46484375 c 0
 231.865234375 591.5234375 191.926757812 567.40234375 139.751953125 601 c 0
 118.984375 615 89.6728515625 579 110.440429688 565 c 0
 159.5078125 533.241210938 206.1328125 527.267578125 244.251953125 535.750976562 c 1
 227.44921875 375.125 148.5546875 155.403320312 110.229492188 1 c 0
 100.6875 -36 151.994140625 -52 179.150390625 -21 c 0
 290.904296875 108.171875 470.85546875 339.227539062 541.452148438 493.610351562 c 1
 576.504882812 525.828125 609.563476562 557.586914062 633.28515625 560 c 0
 681.439453125 565 689.600585938 635 642.446289062 630 c 0xd0
 620.709960938 627.75 595.759765625 609.791015625 570.713867188 586.456054688 c 1
 571.9765625 599.860351562 570.971679688 611.485351562 567.369140625 621 c 0
 561.9765625 634.583007812 550.833984375 639.684570312 538.681640625 638.952148438 c 0
 536.697265625 639.626953125 534.393554688 640 531.755859375 640 c 2xb0
480.16015625 491.666992188 m 1
 463.577148438 475.147460938 449.650390625 464.002929688 440.119140625 464.002929688 c 2
 439.119140625 464.002929688 l 2
 421.119140625 464.002929688 451.055664062 598.002929688 470.055664062 598.002929688 c 2
 491.291015625 598.002929688 l 1
 490.334960938 591.880859375 490.958007812 585.453125 493.669921875 579.002929688 c 0
 500.982421875 559.073242188 494.801757812 528.256835938 480.16015625 491.666992188 c 1
EndSplineSet
Validated: 524329
EndChar

StartChar: ltr122
Encoding: 122 122 29
Width: 450
GlyphClass: 2
Flags: HMW
HStem: -40 42 161.768 48.9328 182 36
VStem: 334 80.1866
LayerCount: 2
Fore
SplineSet
204.017578125 182 m 1xb0
 255.376953125 196.873046875 313.126953125 175.028320312 371.346679688 161.766601562 c 1
 361.2421875 117.999023438 l 2
 340.463867188 27.9990234375 298.461914062 1.9990234375 150.461914062 1.9990234375 c 2
 149.461914062 1.9990234375 l 2
 77.4619140625 1.9990234375 116.083007812 60.9990234375 130.162109375 82.9990234375 c 0
 163.243164062 130.999023438 98.8623046875 163.999023438 65.5498046875 114.999023438 c 0
 22.2353515625 52.9990234375 19.7646484375 -40.0009765625 140.764648438 -40.0009765625 c 0
 327.12890625 -40.0009765625 406.15625 -28.208984375 449.34765625 153.184570312 c 1
 470.450195312 154.478515625 491.2578125 159.66796875 511.477539062 170.999023438 c 0
 556.172851562 199.999023438 525.5625 257.999023438 480.8671875 228.999023438 c 0
 475.7265625 226.095703125 470.540039062 223.590820312 465.309570312 221.44140625 c 1
 486.86328125 313.626953125 508.41796875 405.8125 529.971679688 497.998046875 c 0
 535.734375 521.106445312 524.240234375 534.508789062 508.147460938 538.048828125 c 0
 497.3359375 541.470703125 483.784179688 539.67578125 470.099609375 529.713867188 c 0
 467.99609375 528.252929688 465.974609375 526.619140625 464.063476562 524.8125 c 0
 382.907226562 456.092773438 195.124023438 552.275390625 139.750976562 600.999023438 c 0
 120.444335938 616.999023438 88.826171875 583.999023438 108.131835938 567.999023438 c 0
 162.798828125 519.612304688 322.201171875 431.5859375 435.967773438 441.671875 c 1
 382.643554688 210.700195312 l 1xd0
 320.213867188 214.908203125 254.14453125 236.768554688 188.329101562 218 c 1
 160.866210938 203 175.32421875 166 204.017578125 182 c 1xb0
EndSplineSet
Validated: 524329
EndChar

StartChar: ltr48
Encoding: 48 48 30
Width: 440
GlyphClass: 2
Flags: HMW
HStem: 542 198<114 170 103 181>
VStem: 74 136<571 700 582 700>
LayerCount: 2
Fore
SplineSet
235.607421875 700 m 2
 208.365234375 582 l 2
 203.286132812 560 217.130859375 542 239.130859375 542 c 2
 295.130859375 542 l 2
 317.130859375 542 339.286132812 560 344.365234375 582 c 2
 371.607421875 700 l 2
 376.686523438 722 362.842773438 740 340.842773438 740 c 2
 284.842773438 740 l 2
 262.842773438 740 240.686523438 722 235.607421875 700 c 2
EndSplineSet
Validated: 524329
EndChar

StartChar: ltr49
Encoding: 49 49 31
Width: 440
GlyphClass: 2
Flags: HMW
HStem: 542 198<114 170 103 181 283 340>
VStem: 74 136<571 700 582 700> 243 137<571 700 582 700>
LayerCount: 2
Fore
SplineSet
404.607421875 700 m 2
 377.365234375 582 l 2
 372.286132812 560 386.130859375 542 408.130859375 542 c 2
 465.130859375 542 l 2
 487.130859375 542 509.286132812 560 514.365234375 582 c 2
 541.607421875 700 l 2
 546.686523438 722 532.842773438 740 510.842773438 740 c 2
 453.842773438 740 l 2
 431.842773438 740 409.686523438 722 404.607421875 700 c 2
235.607421875 700 m 2
 208.365234375 582 l 2
 203.286132812 560 217.130859375 542 239.130859375 542 c 2
 295.130859375 542 l 2
 317.130859375 542 339.286132812 560 344.365234375 582 c 2
 371.607421875 700 l 2
 376.686523438 722 362.842773438 740 340.842773438 740 c 2
 284.842773438 740 l 2
 262.842773438 740 240.686523438 722 235.607421875 700 c 2
EndSplineSet
Validated: 524329
EndChar

StartChar: ltr50
Encoding: 50 50 32
Width: 440
GlyphClass: 2
Flags: HMW
HStem: 542 198<114 170 103 181 283 340>
VStem: 74 136<571 700 582 700> 243 137<338 466 349 466 349 582 582 700>
LayerCount: 2
Fore
SplineSet
350.584960938 466 m 2
 323.573242188 349 l 2
 318.494140625 327 332.337890625 309 354.337890625 309 c 2
 411.337890625 309 l 2
 433.337890625 309 455.494140625 327 460.573242188 349 c 2
 487.584960938 466 l 2
 492.6640625 488 478.819335938 506 456.819335938 506 c 2
 399.819335938 506 l 2
 377.819335938 506 355.6640625 488 350.584960938 466 c 2
404.607421875 700 m 2
 377.365234375 582 l 2
 372.286132812 560 386.130859375 542 408.130859375 542 c 2
 465.130859375 542 l 2
 487.130859375 542 509.286132812 560 514.365234375 582 c 2
 541.607421875 700 l 2
 546.686523438 722 532.842773438 740 510.842773438 740 c 2
 453.842773438 740 l 2
 431.842773438 740 409.686523438 722 404.607421875 700 c 2
235.607421875 700 m 2
 208.365234375 582 l 2
 203.286132812 560 217.130859375 542 239.130859375 542 c 2
 295.130859375 542 l 2
 317.130859375 542 339.286132812 560 344.365234375 582 c 2
 371.607421875 700 l 2
 376.686523438 722 362.842773438 740 340.842773438 740 c 2
 284.842773438 740 l 2
 262.842773438 740 240.686523438 722 235.607421875 700 c 2
EndSplineSet
Validated: 524329
EndChar

StartChar: ltr51
Encoding: 51 51 33
Width: 440
GlyphClass: 2
Flags: HMW
HStem: 542 198<114 170 103 181 283 340>
VStem: 74 136<571 700 582 700> 243 137<105 233 116 233 116 349 349 466 582 700>
LayerCount: 2
Fore
SplineSet
296.791992188 233 m 2
 269.780273438 116 l 2
 264.701171875 94 278.545898438 76 300.545898438 76 c 2
 357.545898438 76 l 2
 379.545898438 76 401.701171875 94 406.780273438 116 c 2
 433.791992188 233 l 2
 438.87109375 255 425.02734375 273 403.02734375 273 c 2
 346.02734375 273 l 2
 324.02734375 273 301.87109375 255 296.791992188 233 c 2
350.584960938 466 m 2
 323.573242188 349 l 2
 318.494140625 327 332.337890625 309 354.337890625 309 c 2
 411.337890625 309 l 2
 433.337890625 309 455.494140625 327 460.573242188 349 c 2
 487.584960938 466 l 2
 492.6640625 488 478.819335938 506 456.819335938 506 c 2
 399.819335938 506 l 2
 377.819335938 506 355.6640625 488 350.584960938 466 c 2
404.607421875 700 m 2
 377.365234375 582 l 2
 372.286132812 560 386.130859375 542 408.130859375 542 c 2
 465.130859375 542 l 2
 487.130859375 542 509.286132812 560 514.365234375 582 c 2
 541.607421875 700 l 2
 546.686523438 722 532.842773438 740 510.842773438 740 c 2
 453.842773438 740 l 2
 431.842773438 740 409.686523438 722 404.607421875 700 c 2
235.607421875 700 m 2
 208.365234375 582 l 2
 203.286132812 560 217.130859375 542 239.130859375 542 c 2
 295.130859375 542 l 2
 317.130859375 542 339.286132812 560 344.365234375 582 c 2
 371.607421875 700 l 2
 376.686523438 722 362.842773438 740 340.842773438 740 c 2
 284.842773438 740 l 2
 262.842773438 740 240.686523438 722 235.607421875 700 c 2
EndSplineSet
Validated: 524329
EndChar

StartChar: ltr52
Encoding: 52 52 34
Width: 440
GlyphClass: 2
Flags: HMW
VStem: 74 136<338 700 349 700> 243 137<571 700 582 700>
LayerCount: 2
Fore
SplineSet
404.607421875 700 m 2
 377.365234375 582 l 2
 372.286132812 560 386.130859375 542 408.130859375 542 c 2
 465.130859375 542 l 2
 487.130859375 542 509.286132812 560 514.365234375 582 c 2
 541.607421875 700 l 2
 546.686523438 722 532.842773438 740 510.842773438 740 c 2
 453.842773438 740 l 2
 431.842773438 740 409.686523438 722 404.607421875 700 c 2
235.607421875 700 m 2
 154.573242188 349 l 2
 149.494140625 327 163.337890625 309 185.337890625 309 c 2
 241.337890625 309 l 2
 263.337890625 309 285.494140625 327 290.573242188 349 c 2
 371.607421875 700 l 2
 376.686523438 722 362.842773438 740 340.842773438 740 c 2
 284.842773438 740 l 2
 262.842773438 740 240.686523438 722 235.607421875 700 c 2
EndSplineSet
Validated: 524329
EndChar

StartChar: ltr53
Encoding: 53 53 35
Width: 440
GlyphClass: 2
Flags: HMW
VStem: 74 136<338 700 349 700> 243 137<338 466 349 466 349 582 582 700>
LayerCount: 2
Fore
SplineSet
350.584960938 466 m 2
 323.573242188 349 l 2
 318.494140625 327 332.337890625 309 354.337890625 309 c 2
 411.337890625 309 l 2
 433.337890625 309 455.494140625 327 460.573242188 349 c 2
 487.584960938 466 l 2
 492.6640625 488 478.819335938 506 456.819335938 506 c 2
 399.819335938 506 l 2
 377.819335938 506 355.6640625 488 350.584960938 466 c 2
404.607421875 700 m 2
 377.365234375 582 l 2
 372.286132812 560 386.130859375 542 408.130859375 542 c 2
 465.130859375 542 l 2
 487.130859375 542 509.286132812 560 514.365234375 582 c 2
 541.607421875 700 l 2
 546.686523438 722 532.842773438 740 510.842773438 740 c 2
 453.842773438 740 l 2
 431.842773438 740 409.686523438 722 404.607421875 700 c 2
235.607421875 700 m 2
 154.573242188 349 l 2
 149.494140625 327 163.337890625 309 185.337890625 309 c 2
 241.337890625 309 l 2
 263.337890625 309 285.494140625 327 290.573242188 349 c 2
 371.607421875 700 l 2
 376.686523438 722 362.842773438 740 340.842773438 740 c 2
 284.842773438 740 l 2
 262.842773438 740 240.686523438 722 235.607421875 700 c 2
EndSplineSet
Validated: 524329
EndChar

StartChar: ltr54
Encoding: 54 54 36
Width: 440
GlyphClass: 2
Flags: HMW
VStem: 74 136<338 700 349 700> 243 137<105 233 116 233 116 349 349 466 582 700>
LayerCount: 2
Fore
SplineSet
296.791992188 233 m 2
 269.780273438 116 l 2
 264.701171875 94 278.545898438 76 300.545898438 76 c 2
 357.545898438 76 l 2
 379.545898438 76 401.701171875 94 406.780273438 116 c 2
 433.791992188 233 l 2
 438.87109375 255 425.02734375 273 403.02734375 273 c 2
 346.02734375 273 l 2
 324.02734375 273 301.87109375 255 296.791992188 233 c 2
350.584960938 466 m 2
 323.573242188 349 l 2
 318.494140625 327 332.337890625 309 354.337890625 309 c 2
 411.337890625 309 l 2
 433.337890625 309 455.494140625 327 460.573242188 349 c 2
 487.584960938 466 l 2
 492.6640625 488 478.819335938 506 456.819335938 506 c 2
 399.819335938 506 l 2
 377.819335938 506 355.6640625 488 350.584960938 466 c 2
404.607421875 700 m 2
 377.365234375 582 l 2
 372.286132812 560 386.130859375 542 408.130859375 542 c 2
 465.130859375 542 l 2
 487.130859375 542 509.286132812 560 514.365234375 582 c 2
 541.607421875 700 l 2
 546.686523438 722 532.842773438 740 510.842773438 740 c 2
 453.842773438 740 l 2
 431.842773438 740 409.686523438 722 404.607421875 700 c 2
235.607421875 700 m 2
 154.573242188 349 l 2
 149.494140625 327 163.337890625 309 185.337890625 309 c 2
 241.337890625 309 l 2
 263.337890625 309 285.494140625 327 290.573242188 349 c 2
 371.607421875 700 l 2
 376.686523438 722 362.842773438 740 340.842773438 740 c 2
 284.842773438 740 l 2
 262.842773438 740 240.686523438 722 235.607421875 700 c 2
EndSplineSet
Validated: 524329
EndChar

StartChar: ltr55
Encoding: 55 55 37
Width: 440
GlyphClass: 2
Flags: HMW
VStem: 74 136<105 700 116 700> 243 137<571 700 582 700>
LayerCount: 2
Fore
SplineSet
404.607421875 700 m 2
 377.365234375 582 l 2
 372.286132812 560 386.130859375 542 408.130859375 542 c 2
 465.130859375 542 l 2
 487.130859375 542 509.286132812 560 514.365234375 582 c 2
 541.607421875 700 l 2
 546.686523438 722 532.842773438 740 510.842773438 740 c 2
 453.842773438 740 l 2
 431.842773438 740 409.686523438 722 404.607421875 700 c 2
235.607421875 700 m 2
 100.780273438 116 l 2
 95.701171875 94 109.545898438 76 131.545898438 76 c 2
 187.545898438 76 l 2
 209.545898438 76 231.701171875 94 236.780273438 116 c 2
 371.607421875 700 l 2
 376.686523438 722 362.842773438 740 340.842773438 740 c 2
 284.842773438 740 l 2
 262.842773438 740 240.686523438 722 235.607421875 700 c 2
EndSplineSet
Validated: 524329
EndChar

StartChar: ltr56
Encoding: 56 56 38
Width: 440
GlyphClass: 2
Flags: HMW
VStem: 74 136<105 700 116 700> 243 137<338 466 349 466 349 582 582 700>
LayerCount: 2
Fore
SplineSet
350.584960938 466 m 2
 323.573242188 349 l 2
 318.494140625 327 332.337890625 309 354.337890625 309 c 2
 411.337890625 309 l 2
 433.337890625 309 455.494140625 327 460.573242188 349 c 2
 487.584960938 466 l 2
 492.6640625 488 478.819335938 506 456.819335938 506 c 2
 399.819335938 506 l 2
 377.819335938 506 355.6640625 488 350.584960938 466 c 2
404.607421875 700 m 2
 377.365234375 582 l 2
 372.286132812 560 386.130859375 542 408.130859375 542 c 2
 465.130859375 542 l 2
 487.130859375 542 509.286132812 560 514.365234375 582 c 2
 541.607421875 700 l 2
 546.686523438 722 532.842773438 740 510.842773438 740 c 2
 453.842773438 740 l 2
 431.842773438 740 409.686523438 722 404.607421875 700 c 2
235.607421875 700 m 2
 100.780273438 116 l 2
 95.701171875 94 109.545898438 76 131.545898438 76 c 2
 187.545898438 76 l 2
 209.545898438 76 231.701171875 94 236.780273438 116 c 2
 371.607421875 700 l 2
 376.686523438 722 362.842773438 740 340.842773438 740 c 2
 284.842773438 740 l 2
 262.842773438 740 240.686523438 722 235.607421875 700 c 2
EndSplineSet
Validated: 524329
EndChar

StartChar: ltr57
Encoding: 57 57 39
Width: 440
GlyphClass: 2
Flags: HMW
VStem: 74 136<105 700 116 700> 243 137<105 233 116 233 116 349 349 466 582 700>
LayerCount: 2
Fore
SplineSet
296.791992188 233 m 2
 269.780273438 116 l 2
 264.701171875 94 278.545898438 76 300.545898438 76 c 2
 357.545898438 76 l 2
 379.545898438 76 401.701171875 94 406.780273438 116 c 2
 433.791992188 233 l 2
 438.87109375 255 425.02734375 273 403.02734375 273 c 2
 346.02734375 273 l 2
 324.02734375 273 301.87109375 255 296.791992188 233 c 2
350.584960938 466 m 2
 323.573242188 349 l 2
 318.494140625 327 332.337890625 309 354.337890625 309 c 2
 411.337890625 309 l 2
 433.337890625 309 455.494140625 327 460.573242188 349 c 2
 487.584960938 466 l 2
 492.6640625 488 478.819335938 506 456.819335938 506 c 2
 399.819335938 506 l 2
 377.819335938 506 355.6640625 488 350.584960938 466 c 2
404.607421875 700 m 2
 377.365234375 582 l 2
 372.286132812 560 386.130859375 542 408.130859375 542 c 2
 465.130859375 542 l 2
 487.130859375 542 509.286132812 560 514.365234375 582 c 2
 541.607421875 700 l 2
 546.686523438 722 532.842773438 740 510.842773438 740 c 2
 453.842773438 740 l 2
 431.842773438 740 409.686523438 722 404.607421875 700 c 2
235.607421875 700 m 2
 100.780273438 116 l 2
 95.701171875 94 109.545898438 76 131.545898438 76 c 2
 187.545898438 76 l 2
 209.545898438 76 231.701171875 94 236.780273438 116 c 2
 371.607421875 700 l 2
 376.686523438 722 362.842773438 740 340.842773438 740 c 2
 284.842773438 740 l 2
 262.842773438 740 240.686523438 722 235.607421875 700 c 2
EndSplineSet
Validated: 524329
EndChar

StartChar: ltr33
Encoding: 33 33 41
Width: 340
GlyphClass: 2
Flags: W
LayerCount: 2
Fore
SplineSet
326.19140625 382 m 2
 134.102539062 256 l 1
 99.408203125 240 112.557617188 193 147.482421875 210 c 2
 354.954101562 316 l 2
 406.649414062 345 377.118164062 412 326.19140625 382 c 2
379.984375 615 m 2
 187.89453125 489 l 1
 153.200195312 473 166.349609375 426 201.274414062 443 c 2
 408.747070312 549 l 2
 460.44140625 578 430.91015625 645 379.984375 615 c 2
EndSplineSet
Validated: 524329
EndChar

StartChar: ltr34
Encoding: 34 34 42
Width: 340
GlyphClass: 2
Flags: W
VStem: 260.376 62.4639<680.715 713.667>
LayerCount: 2
Fore
SplineSet
260.375976562 686 m 1
 266.1328125 568 l 2
 268.052734375 533 324.052734375 533 342.1328125 568 c 2
 402.375976562 686 l 1
 428.91796875 723 380.151367188 750 352.83984375 714 c 2
 329.990234375 680 l 1
 322.83984375 714 l 2
 312.151367188 750 250.91796875 723 260.375976562 686 c 1
EndSplineSet
Validated: 524329
EndChar

StartChar: ltr35
Encoding: 35 35 43
Width: 340
GlyphClass: 2
Flags: HMW
HStem: 272 42<73 87> 382 40.2717
VStem: 133 80<89.5 272.729 116 272.266 422.734 582 422.734 422.734>
LayerCount: 2
Fore
SplineSet
175.19140625 382 m 2
 348.19140625 382 l 2
 375.19140625 382 384.426757812 422 357.426757812 422 c 2
 310.489257812 422.271484375 l 1
 347.365234375 582 l 2
 359.6015625 635 279.6015625 635 267.365234375 582 c 2
 230.595703125 422.734375 l 1
 184.657226562 423 l 2
 157.657226562 423 148.19140625 382 175.19140625 382 c 2
195.857421875 272.265625 m 1
 159.780273438 116 l 2
 147.544921875 63 227.544921875 63 239.780273438 116 c 2
 275.963867188 272.728515625 l 1
 323.02734375 273 l 2
 350.02734375 273 359.4921875 314 332.4921875 314 c 2
 159.4921875 314 l 2
 131.4921875 314 121.795898438 272 149.795898438 272 c 2
 195.857421875 272.265625 l 1
EndSplineSet
Validated: 524329
EndChar

StartChar: ltr36
Encoding: 36 36 44
Width: 340
GlyphClass: 2
Flags: HMW
HStem: 581.365 37.5073 591.133 32.6632 618.31 21G
VStem: 65 60<618.812 618.812 618.812 646> 91 78 133 60<623.797 647 581.999 647 581.999 618.872>
LayerCount: 2
Fore
SplineSet
207.864257812 618.811523438 m 1x34
 202.978515625 619.3671875 198.143554688 620.084960938 193.369140625 620.998046875 c 0
 168.677734375 630.998046875 145.211914062 589.998046875 170.133789062 580.998046875 c 0
 179.625976562 579.087890625 189.248046875 577.956054688 198.89453125 577.420898438 c 1
 197.455078125 545.278320312 247.499023438 546.216796875 258.7734375 580.236328125 c 0
 261.610351562 580.59375 264.427734375 580.970703125 267.223632812 581.36328125 c 1x94
 258.767578125 542 318.1796875 542.211914062 327.365234375 581.999023438 c 2
 329.473632812 591.1328125 l 1x54
 343.75390625 593.001953125 356.091796875 593.747070312 365.673828125 592 c 1
 279.895507812 502 167.793945312 246 119.396484375 123 c 0
 98.1611328125 70 174.159179688 57 194.165039062 109 c 0x48
 240.71484375 224 333.584960938 466 421.055664062 559 c 0
 443.365234375 582 437.21484375 616 410.369140625 621 c 0
 386.889648438 625.423828125 362.135742188 625.33203125 337.014648438 623.796875 c 1x44
 342.372070312 647 l 2
 351.606445312 687 291.606445312 687 282.372070312 647 c 2
 275.877929688 618.872070312 l 2x84
 273.163085938 618.670898438 270.453125 618.482421875 267.748046875 618.309570312 c 1
 274.140625 646 l 2
 283.375976562 686 223.375976562 686 214.140625 646 c 2
 207.864257812 618.811523438 l 1x34
EndSplineSet
Validated: 524329
EndChar

StartChar: ltr38
Encoding: 38 38 45
Width: 540
GlyphClass: 2
Flags: HMW
HStem: 81 70 562 40<313.001 352.996 352.996 352.996 412.995 460>
VStem: 113 60<582 602> 352 60.2443
LayerCount: 2
Fore
SplineSet
247.365234375 582 m 0
 203.115234375 386 181.171875 174 188.461914062 -11 c 0
 190.842773438 -44 240.918945312 -48 263.306640625 -16 c 0
 348.396484375 110 386.0546875 546 442.749023438 562 c 1
 482.744140625 562 l 1
 438.392578125 371.333007812 394.041992188 180.666015625 349.69140625 -10.0009765625 c 0
 340.456054688 -50.0009765625 400.456054688 -50.0009765625 409.69140625 -10.0009765625 c 2
 411.359375 -2.828125 l 2
 424.08984375 39.111328125 455.502929688 80 479.700195312 80.9990234375 c 0
 527.162109375 82.9990234375 540.322265625 152.999023438 493.861328125 150.999023438 c 0
 478.606445312 150.654296875 460.569335938 143.41015625 442.36328125 130.45703125 c 1
 475.823242188 274.3046875 509.283203125 418.15234375 542.743164062 562 c 1
 589.748046875 562 l 2
 616.748046875 562 625.982421875 602 598.982421875 602 c 2
 445.982421875 602 l 2
 441.982421875 602 438.982421875 602 434.520507812 600 c 0
 381.2890625 586 316.32421875 166 257.0078125 78 c 1
 251.94140625 186 264.5 392 307.365234375 582 c 0
 316.599609375 622 256.599609375 622 247.365234375 582 c 0
EndSplineSet
Validated: 524329
EndChar

StartChar: ltr39
Encoding: 39 39 46
Width: 201
GlyphClass: 2
Flags: HMW
VStem: 11 58<575 589>
LayerCount: 2
Fore
SplineSet
185.223632812 707 m 1
 146.981445312 589 l 1
 127.977539062 550 183.745117188 536 201.749023438 575 c 2
 259.991210938 693 l 2
 281.997070312 745 206.459960938 760 185.223632812 707 c 1
EndSplineSet
Validated: 524329
EndChar

StartChar: ltr40
Encoding: 40 40 47
Width: 340
GlyphClass: 2
Flags: HMW
HStem: 319 60<87 220>
VStem: 220 80<-26.5 700 0 319 379 379 379 700>
LayerCount: 2
Fore
SplineSet
293.646484375 319 m 1
 220 0 l 2
 207.763671875 -53 287.763671875 -53 300 0 c 2
 461.607421875 700 l 2
 473.84375 753 393.84375 753 381.607421875 700 c 2
 307.499023438 379 l 1
 174.499023438 379 l 2
 134.499023438 379 120.646484375 319 160.646484375 319 c 2
 293.646484375 319 l 1
EndSplineSet
Validated: 524329
EndChar

StartChar: ltr41
Encoding: 41 41 48
Width: 340
GlyphClass: 2
Flags: HMW
HStem: 319 60<127 260 127 280>
VStem: 47 80<-26.5 319 0 319 379 700>
LayerCount: 2
Fore
SplineSet
208.607421875 700 m 2
 47 0 l 2
 34.763671875 -53 114.763671875 -53 127 0 c 2
 200.646484375 319 l 1
 333.646484375 319 l 2
 373.646484375 319 387.499023438 379 347.499023438 379 c 2
 214.499023438 379 l 1
 288.607421875 700 l 2
 300.84375 753 220.84375 753 208.607421875 700 c 2
EndSplineSet
Validated: 524329
EndChar

StartChar: ltr44
Encoding: 44 44 49
Width: 340
GlyphClass: 2
Flags: HMW
VStem: 90 80<-26.5 116 0 116>
LayerCount: 2
Fore
SplineSet
116.780273438 116 m 2
 90 0 l 2
 77.763671875 -53 157.763671875 -53 170 0 c 2
 196.780273438 116 l 2
 209.016601562 169 129.016601562 169 116.780273438 116 c 2
EndSplineSet
Validated: 524329
EndChar

StartChar: ltr45
Encoding: 45 45 50
Width: 340
GlyphClass: 2
Flags: HMW
HStem: 557 50<113.5 130>
LayerCount: 2
Fore
SplineSet
258.59375 557 m 2
 387.439453125 552 l 2
 427.439453125 552 441.291015625 612 401.291015625 612 c 2
 270.13671875 607 l 2
 237.13671875 607 225.59375 557 258.59375 557 c 2
EndSplineSet
Validated: 524329
EndChar

StartChar: ltr46
Encoding: 46 46 51
Width: 340
GlyphClass: 2
Flags: HMW
VStem: 90 80<-26.5 116 0 116> 220 80<-26.5 116 0 116>
LayerCount: 2
Fore
SplineSet
246.780273438 116 m 2
 220 0 l 2
 207.763671875 -53 287.763671875 -53 300 0 c 2
 326.780273438 116 l 2
 339.016601562 169 259.016601562 169 246.780273438 116 c 2
116.780273438 116 m 2
 90 0 l 2
 77.763671875 -53 157.763671875 -53 170 0 c 2
 196.780273438 116 l 2
 209.016601562 169 129.016601562 169 116.780273438 116 c 2
EndSplineSet
Validated: 524329
EndChar

StartChar: ltr58
Encoding: 58 58 52
Width: 340
GlyphClass: 2
Flags: HMW
HStem: -30 60<87 209>
LayerCount: 2
Fore
SplineSet
143.110351562 334 m 0
 196.946289062 238 215.471679688 106 215.92578125 30 c 1
 93.92578125 30 l 2
 53.92578125 30 40.07421875 -30 80.07421875 -30 c 2
 253.07421875 -30 l 2
 278.07421875 -30 303.845703125 -5 303.38671875 19 c 0
 302.859375 138 248.94921875 264 192.036132812 364 c 0
 178.5 392 129.57421875 362 143.110351562 334 c 0
EndSplineSet
Validated: 524329
EndChar

StartChar: ltr59
Encoding: 59 59 53
Width: 340
GlyphClass: 2
Flags: HMW
VStem: 90 80<-26.5 700 0 700>
LayerCount: 2
Fore
SplineSet
251.607421875 700 m 2
 90 0 l 2
 77.763671875 -53 157.763671875 -53 170 0 c 2
 331.607421875 700 l 2
 343.84375 753 263.84375 753 251.607421875 700 c 2
EndSplineSet
Validated: 524329
EndChar

StartChar: ltr63
Encoding: 63 63 54
Width: 340
GlyphClass: 2
Flags: HMW
HStem: 698 42<163.458 172 172 173 163.458 194.5>
VStem: 47 80 235 65<410 466 403 549>
LayerCount: 2
Fore
SplineSet
287.484375 722.795898438 m 1
 275.129882812 751.405273438 218.721679688 743.806640625 208.607421875 700 c 2
 182.057617188 585 l 1
 181.365234375 582 l 2
 171.4375 539 247.745117188 536 260.672851562 579 c 0
 270.291015625 612 292.146484375 698 334.146484375 698 c 0
 377.146484375 698 380.909179688 632 342.584960938 466 c 0
 316.727539062 354 278.396484375 123 125.30859375 10 c 0
 94.2294921875 -12 117.995117188 -52 150.07421875 -30 c 0
 316.701171875 94 378.495117188 340 407.584960938 466 c 0
 470.918945312 736 387.842773438 740 343.842773438 740 c 2
 342.842773438 740 l 2
 325.759765625 740 306.607421875 733.858398438 287.484375 722.795898438 c 1
EndSplineSet
Validated: 524329
EndChar

StartChar: ltr715
Encoding: 715 715 56
Width: 650
GlyphClass: 2
Flags: MW
HStem: 680 40
LayerCount: 2
Fore
SplineSet
166 680 m 0
 200 679 239 661 240 637 c 0
 243 584 323 588 320 641 c 0
 317 691 230 719 168 720 c 0
 141 721 140 681 166 680 c 0
EndSplineSet
Validated: 41
EndChar

StartChar: ltr168
Encoding: 168 168 57
Width: 650
GlyphClass: 2
Flags: MW
VStem: 210 80<699 701> 219 60<751 753> 293 80<699 701> 302 60<755 757>
LayerCount: 2
Fore
SplineSet
373 701 m 1x20
 362 757 l 1
 361 797 301 795 302 755 c 1x10
 293 699 l 1
 294 646 374 647 373 701 c 1x20
290 701 m 1x80
 279 753 l 1
 278 793 218 791 219 751 c 1x40
 210 699 l 1
 211 646 291 647 290 701 c 1x80
EndSplineSet
Validated: 41
EndChar

StartChar: ltr714
Encoding: 714 714 58
Width: 650
GlyphClass: 2
Flags: W
LayerCount: 2
Fore
SplineSet
315 736 m 1
 232 684 l 2
 198 660 234 608 268 632 c 1
 351 664 l 1
 399 688 363 760 315 736 c 1
EndSplineSet
Validated: 41
EndChar

StartChar: ltr710
Encoding: 710 710 59
Width: 650
GlyphClass: 2
Flags: MW
HStem: 679 20G<250 250> 681 54<153 181>
LayerCount: 2
Fore
SplineSet
181 681 m 1x40
 250 699 l 1x80
 319 681 l 1
 355 661 384 716 347 735 c 2
 264 777 l 2
 253 783 247 783 236 777 c 2
 153 735 l 2
 116 716 145 661 181 681 c 1x40
EndSplineSet
Validated: 41
EndChar

StartChar: ltr730
Encoding: 730 730 60
Width: 650
GlyphClass: 2
Flags: MW
HStem: 680.409 20G
LayerCount: 2
Fore
SplineSet
210 701 m 0
 210 663 242 631 281 631 c 0
 321 631 357 666 357 701 c 0
 357 738 321 772 281 772 c 2
 279 772 l 2
 242 772 210 740 210 701 c 0
282.196289062 710.279296875 m 1
 282.62109375 709.80078125 282.728515625 709.118164062 282.682617188 708.330078125 c 1
 282.54296875 708.935546875 282.381835938 709.583984375 282.196289062 710.279296875 c 1
280.229492188 700.41015625 m 1
 280.322265625 700.387695312 280.4140625 700.3671875 280.506835938 700.348632812 c 1
 279.688476562 697.467773438 283.749023438 692.000976562 280 692.000976562 c 0
 276.624023438 692.000976562 280.086914062 697.471679688 280.229492188 700.41015625 c 1
EndSplineSet
Validated: 524297
EndChar

StartChar: D
Encoding: 68 68 61
Width: 500
Flags: W
HStem: -140 41<171.659 244.341> 251 44<166.979 268.274>
VStem: 223.935 82.3613<471.824 534.057>
LayerCount: 2
Fore
SplineSet
343.071289062 254.701171875 m 1
 382.40234375 232.009765625 384.645507812 180.387695312 370.704101562 120 c 0
 347.848632812 21 250.913085938 -100 203.14453125 -99 c 2
 201.14453125 -99 l 2
 166.913085938 -100 151.763671875 -53 175.229492188 -12 c 1
 175.4609375 -11 l 1
 228.321289062 85.8154296875 284.375976562 173.530273438 343.071289062 254.701171875 c 1
378.416015625 302.397460938 m 1
 453.626953125 401.46484375 532.850585938 490.9609375 614.979492188 575.998046875 c 0
 648.400390625 610.274414062 620.921875 647.727539062 587.666992188 639.734375 c 1
 521.3671875 636.256835938 485.802734375 599.799804688 395.213867188 615.997070312 c 0
 360.061523438 623.997070312 348.75390625 626.997070312 307.524414062 638.997070312 c 0
 283.909179688 644.997070312 254.522460938 625.997070312 248.520507812 599.997070312 c 2
 243.93359375 580.129882812 l 1
 207.823242188 582.661132812 164.919921875 571.791015625 139.750976562 600.998046875 c 0
 123.907226562 618.998046875 88.98046875 588.998046875 104.594726562 569.998046875 c 0
 144.626953125 524.39453125 213.171875 581.0078125 223.934570312 488.444335938 c 0
 223.954101562 481.6484375 225.783203125 476.0390625 228.883789062 471.616210938 c 0
 236.801757812 458.974609375 252.977539062 456.296875 268.517578125 460.9140625 c 0
 277.498046875 463.299804688 286.279296875 468.25 293.15625 475.763671875 c 0
 300.33984375 483.163085938 305.385742188 492.6875 306.295898438 503.736328125 c 2
 325.518554688 586.999023438 l 1
 329.287109375 585.999023438 341.826171875 583.999023438 370.440429688 577.999023438 c 1
 371.440429688 577.999023438 l 1
 444.3203125 564.297851562 482.002929688 575.000976562 523.266601562 583.1015625 c 1
 446.127929688 500.213867188 373.595703125 412.622070312 304.912109375 317.047851562 c 1
 270.521484375 316.755859375 227.997070312 309.720703125 176.10546875 295 c 1
 143.180664062 278 158.022460938 234 191.947265625 251 c 1
 221.91015625 259.547851562 247.525390625 264.471679688 269.296875 266.256835938 c 1
 215.6328125 187.819335938 164.328125 103.953125 115 13 c 0
 51.1435546875 -99 140.215820312 -142 192.677734375 -140 c 0
 250.446289062 -141 390.536132812 -15 417.0859375 100 c 0
 439.846679688 198.587890625 435.287109375 272.431640625 378.416015625 302.397460938 c 1
EndSplineSet
Validated: 524329
EndChar

StartChar: E
Encoding: 69 69 62
Width: 570
Flags: W
HStem: 560 80<628.878 683.367>
LayerCount: 2
Fore
SplineSet
532.518554688 574 m 2
 397 0 l 2
 386.149414062 -47 456.149414062 -47 467 0 c 2
 611.743164062 570.944335938 l 1
 659.286132812 560 l 1
 712.286132812 560 730.755859375 640 677.755859375 640 c 2
 504.6484375 640 l 2
 498.826171875 643.446289062 490.569335938 643.646484375 481.293945312 638 c 0
 408.752929688 614 254.474609375 132 212.39453125 97 c 1
 327.126953125 593.9609375 l 2
 330.475585938 601.96484375 330.962890625 609.541992188 329.329101562 616.161132812 c 0
 327.2890625 628.33984375 318.677734375 635.802734375 307.740234375 638.549804688 c 0
 297.665039062 641.770507812 285.42578125 640.717773438 273.67578125 633.48046875 c 0
 266.62890625 629.633789062 260.235351562 624.016601562 255.471679688 616.62890625 c 0
 233.809570312 593.314453125 193.784179688 566.206054688 139.751953125 601 c 0
 118.984375 615 89.6728515625 579 110.440429688 565 c 0
 154.465820312 536.432617188 197.08203125 528.96484375 233.321289062 534.162109375 c 1
 110 0 l 2
 102.381835938 -33 142.995117188 -52 171.536132812 -28 c 0
 284.524414062 63.7958984375 409.509765625 550.405273438 492.823242188 598.319335938 c 1
 537.859375 587.952148438 l 1
 535.537109375 583.801757812 533.708007812 579.151367188 532.518554688 574 c 2
EndSplineSet
Validated: 524329
EndChar

StartChar: F
Encoding: 70 70 63
Width: 470
Flags: W
HStem: -39.999 41<154.865 290.012> 296.908 45.8184<178.373 184.03 398.337 417.104>
VStem: 456.174 80<155.522 215.49>
LayerCount: 2
Fore
SplineSet
110.440429688 565 m 0
 160.178710938 532.982421875 245.604492188 530.918945312 310.584960938 543.962890625 c 1
 263.763671875 341.157226562 l 1
 226.930664062 340.438476562 190.09765625 339.719726562 153.264648438 339.000976562 c 0
 131.264648438 339.000976562 109.109375 321.000976562 104.030273438 299.000976562 c 0
 36.84765625 8.0009765625 45.765625 -39.9990234375 230.765625 -39.9990234375 c 0
 305.765625 -39.9990234375 508.700195312 81.0009765625 536.173828125 200.000976562 c 0
 548.41015625 253.000976562 468.41015625 253.000976562 456.173828125 200.000976562 c 0
 437.01171875 117.000976562 300.231445312 1.0009765625 225.231445312 1.0009765625 c 0
 76.2314453125 1.0009765625 145.012695312 130.000976562 184.030273438 299.000976562 c 1
 253.8046875 298.024414062 l 1
 200.9296875 69.0009765625 l 2
 188.694335938 16.0009765625 268.694335938 16.0009765625 280.9296875 69.0009765625 c 2
 333.546875 296.908203125 l 1
 398.336914062 296.000976562 l 2
 430.336914062 296.000976562 441.418945312 344.000976562 409.418945312 344.000976562 c 2
 344.125 342.7265625 l 1
 402.454101562 595.379882812 l 2
 406.681640625 605.759765625 406.109375 615.282226562 402.366210938 622.868164062 c 0
 399.743164062 628.890625 395.1640625 633.301757812 389.4765625 636.1015625 c 0
 379.451171875 641.571289062 365.961914062 642.215820312 352.814453125 635.5078125 c 0
 343.873046875 631.611328125 335.635742188 625.029296875 329.92578125 615.762695312 c 0
 300.077148438 590.056640625 193.995117188 564.981445312 139.751953125 601 c 0
 118.984375 615 89.6728515625 579 110.440429688 565 c 0
EndSplineSet
Validated: 524329
EndChar

StartChar: G
Encoding: 71 71 64
Width: 600
Flags: W
HStem: -39.998 40.999<190.229 277.789> 359.821 42.0879<411.734 490.944> 600.002 39.998<449.65 554.521>
VStem: 674.521 67.6934<549.412 622.594>
LayerCount: 2
Fore
SplineSet
110.440429688 565 m 0
 154.465820312 536.432617188 197.08203125 528.966796875 233.3203125 534.1640625 c 1
 109.999023438 0.001953125 l 2
 104.919921875 -21.998046875 118.764648438 -39.998046875 140.764648438 -39.998046875 c 0
 325.918945312 -39.998046875 458.239257812 12.896484375 573.079101562 371.293945312 c 1
 643.348632812 415.727539062 712.487304688 487.241210938 742.213867188 616.000976562 c 1
 741.141601562 659.000976562 673.447265625 643.000976562 674.520507812 600.000976562 c 1
 655.012695312 515.50390625 625.424804688 439.62890625 584.09765625 406.799804688 c 1
 601.236328125 463.79296875 618.00390625 527.905273438 634.520507812 600 c 0
 639.599609375 622 625.755859375 640 603.755859375 640 c 0
 460.73828125 640 354.74609375 622.639648438 313.594726562 535.348632812 c 1
 327.126953125 593.9609375 l 2
 330.475585938 601.96484375 330.962890625 609.541992188 329.329101562 616.161132812 c 0
 327.2890625 628.33984375 318.677734375 635.802734375 307.740234375 638.549804688 c 0
 297.665039062 641.770507812 285.42578125 640.717773438 273.67578125 633.48046875 c 0
 266.62890625 629.633789062 260.235351562 624.016601562 255.471679688 616.62890625 c 0
 233.809570312 593.314453125 193.784179688 566.206054688 139.751953125 601 c 0
 118.984375 615 89.6728515625 579 110.440429688 565 c 0
503.708984375 401.909179688 m 1
 411.190429688 407.9765625 365.419921875 430.637695312 381.203125 499.001953125 c 0
 400.365234375 582.001953125 479.520507812 600.001953125 554.520507812 600.001953125 c 1
 537.6875 526.359375 520.85546875 460.504882812 503.708984375 401.909179688 c 1
490.944335938 359.821289062 m 1
 409.994140625 102.572265625 320.478515625 1.0009765625 190.229492188 1.0009765625 c 1
 296.912109375 463.09375 l 1
 297.861328125 386.66015625 374.733398438 364.096679688 490.944335938 359.821289062 c 1
EndSplineSet
Validated: 524329
EndChar

StartChar: H
Encoding: 72 72 65
Width: 500
Flags: W
HStem: 279.001 40<273.893 367.327>
VStem: 223.705 82.3613<470.828 533.059>
LayerCount: 2
Fore
SplineSet
446.018554688 -39.4580078125 m 0
 464.650390625 -37.3818359375 484.40625 -24.2265625 490 0.0029296875 c 0
 525.251953125 152.697265625 501.34375 241.342773438 437.006835938 284.8984375 c 1
 515.686523438 303.469726562 575.493164062 370.314453125 628.520507812 600.002929688 c 0
 633.96484375 623.5859375 621.1484375 636.67578125 604.166015625 639.271484375 c 0
 602.251953125 639.747070312 600.118164062 640.002929688 597.755859375 640.002929688 c 0
 524.755859375 640.002929688 490.291015625 599.002929688 395.215820312 616.002929688 c 0
 360.0625 624.002929688 348.754882812 627.002929688 307.525390625 639.002929688 c 0
 283.911132812 645.002929688 254.524414062 626.002929688 248.521484375 600.002929688 c 2
 243.819335938 579.635742188 l 1
 207.709960938 582.169921875 164.795898438 571.255859375 139.752929688 601.002929688 c 0
 124.138671875 620.002929688 88.982421875 589.002929688 104.826171875 571.002929688 c 0
 144.393554688 523.424804688 213.143554688 580.97265625 223.705078125 487.526367188 c 0
 223.7109375 480.6953125 225.541015625 475.059570312 228.655273438 470.619140625 c 0
 236.572265625 457.977539062 252.748046875 455.299804688 268.2890625 459.916992188 c 0
 277.26953125 462.302734375 286.049804688 467.252929688 292.926757812 474.766601562 c 0
 300.110351562 482.166015625 305.15625 491.690429688 306.06640625 502.739257812 c 2
 325.520507812 587.001953125 l 1
 329.2890625 586.001953125 341.827148438 584.001953125 370.442382812 578.001953125 c 1
 371.442382812 578.001953125 l 1
 457.076171875 561.90234375 494.115234375 579.497070312 545.46875 586.97265625 c 1
 489.545898438 351.797851562 435.165039062 319.000976562 298.647460938 319.000976562 c 0
 285.147460938 319.000976562 276.088867188 309.000976562 273.780273438 299.000976562 c 0
 271.470703125 289.000976562 275.912109375 279.000976562 289.412109375 279.000976562 c 0
 427.686523438 279.000976562 447.65625 165.198242188 410.587890625 2.564453125 c 1
 277.015625 12.798828125 160.380859375 68.7939453125 86.3115234375 36 c 0
 33.0009765625 13 51.37890625 -59 103.688476562 -36 c 0
 178.076171875 -4 298.765625 -40 440.765625 -40 c 0
 442.599609375 -40 444.3515625 -39.810546875 446.018554688 -39.4580078125 c 0
EndSplineSet
Validated: 524329
EndChar

StartChar: I
Encoding: 73 73 66
Width: 200
Flags: W
LayerCount: 2
Fore
SplineSet
107.1328125 568 m 0
 141.672851562 535.640625 189.94921875 526.486328125 233.651367188 534.133789062 c 1
 194.396484375 356.999023438 159.495117188 179.166015625 93.845703125 -4.9990234375 c 1
 83.2255859375 -50.9990234375 153.225585938 -50.9990234375 163.845703125 -4.9990234375 c 1
 234.63671875 194.620117188 280.5625 392.286132812 326.864257812 592.82421875 c 0
 330.114257812 600.442382812 330.823242188 607.708984375 329.600585938 614.16796875 c 0
 328.203125 627.5546875 319.229492188 635.6875 307.674804688 638.56640625 c 0
 295.6640625 642.540039062 280.54296875 640.418945312 266.706054688 628.90625 c 0
 263.471679688 626.3828125 260.482421875 623.418945312 257.860351562 620.013671875 c 0
 234.700195312 594.422851562 179.184570312 564.9375 139.751953125 601 c 0
 121.676757812 618 89.0576171875 585 107.1328125 568 c 0
EndSplineSet
Validated: 524329
EndChar

StartChar: J
Encoding: 74 74 67
Width: 500
Flags: W
HStem: -39.999 40<215.644 297.089>
LayerCount: 2
Fore
SplineSet
110.440429688 565 m 0
 169.399414062 527.081054688 286.03125 382.3828125 526.55078125 516.521484375 c 1
 471.955078125 329.34765625 370.53515625 92.5224609375 280 0.0009765625 c 1
 225 0.0009765625 169.237304688 66.0009765625 71.7734375 38.0009765625 c 0
 17.310546875 23.0009765625 23.533203125 -53.9990234375 78.2275390625 -37.9990234375 c 0
 164.768554688 -13.9990234375 219.765625 -39.9990234375 290.765625 -39.9990234375 c 0
 303.765625 -39.9990234375 316.150390625 -33.9990234375 326.458984375 -23.9990234375 c 0
 425.973632812 77.7080078125 576.435546875 383.201171875 626.655273438 592.08203125 c 0
 629.399414062 598.497070312 630.33984375 604.934570312 629.786132812 610.9296875 c 0
 629.625 623.477539062 623.250976562 631.927734375 614.10546875 636.28125 c 0
 603.86328125 642.318359375 589.568359375 642.834960938 574.002929688 633.658203125 c 0
 570.63671875 631.8515625 567.416015625 629.643554688 564.446289062 627.034179688 c 0
 323.03515625 449.2578125 196.665039062 563.208007812 139.751953125 601 c 0
 118.984375 615 89.6728515625 579 110.440429688 565 c 0
EndSplineSet
Validated: 524329
EndChar

StartChar: K
Encoding: 75 75 68
Width: 500
Flags: W
HStem: -40.001 42<234.556 346.215> 597.999 42<380.802 475.186>
VStem: 225.201 64.9971<471.687 495.298>
LayerCount: 2
Fore
SplineSet
110.440429688 565 m 0
 154.87109375 536.2421875 197.297851562 528.625976562 233.221679688 533.7421875 c 1
 225.201171875 498.999023438 l 2
 217.3515625 464.999023438 261.196289062 446.999023438 290.198242188 472.999023438 c 0
 343.7421875 522.999023438 364.056640625 597.999023438 438.056640625 597.999023438 c 0
 512.056640625 597.999023438 512.96484375 445.999023438 479.02734375 298.999023438 c 0
 445.08984375 151.999023438 374.459960938 1.9990234375 300.459960938 1.9990234375 c 2
 299.459960938 1.9990234375 l 2
 232.459960938 1.9990234375 189.541015625 49.9990234375 209.544921875 88.9990234375 c 0
 234.319335938 139.999023438 162.16796875 160.999023438 136.162109375 108.999023438 c 0
 104.15625 43.9990234375 172.762695312 -40.0009765625 290.762695312 -40.0009765625 c 0
 374.762695312 -40.0009765625 500.618164062 45.9990234375 559.02734375 298.999023438 c 0
 617.4375 551.999023438 531.75390625 639.999023438 447.75390625 639.999023438 c 2
 446.75390625 639.999023438 l 2
 376.048828125 639.999023438 337.704101562 614.240234375 330.569335938 608.885742188 c 1
 330.362304688 607.987304688 l 1
 330.374023438 608.243164062 330.383789062 608.498046875 330.390625 608.751953125 c 1
 330.149414062 608.568359375 329.94921875 608.413085938 329.791992188 608.288085938 c 1
 329.950195312 608.424804688 330.151367188 608.600585938 330.393554688 608.817382812 c 0
 330.517578125 613.96484375 329.41796875 618.708007812 327.365234375 622.868164062 c 0
 324.7421875 628.890625 320.163085938 633.301757812 314.475585938 636.1015625 c 0
 304.450195312 641.571289062 290.9609375 642.215820312 277.813476562 635.5078125 c 0
 268.4296875 631.41796875 259.821289062 624.37109375 254.096679688 614.3671875 c 0
 232.9609375 592.197265625 192.643554688 566.940429688 139.751953125 601 c 0
 118.984375 615 89.6728515625 579 110.440429688 565 c 0
330.5703125 608.884765625 m 2
 330.508789062 608.837890625 330.450195312 608.794921875 330.392578125 608.751953125 c 1
 330.393554688 608.7734375 330.393554688 608.794921875 330.393554688 608.81640625 c 0
 330.458007812 608.874023438 330.526367188 608.934570312 330.596679688 608.999023438 c 1
 330.5703125 608.884765625 l 2
EndSplineSet
Validated: 524325
EndChar

StartChar: L
Encoding: 76 76 69
Width: 380
Flags: W
HStem: 160 80<31.3278 109.263>
LayerCount: 2
Fore
SplineSet
304.168945312 61.37109375 m 1
 244.530273438 141.254882812 120.407226562 240 55.408203125 240 c 0
 2.408203125 240 -16.0615234375 160 36.9384765625 160 c 0
 100.1171875 160 244.469726562 68.3974609375 289.965820312 -19.5703125 c 1
 299.36328125 -51.904296875 359.5234375 -45.380859375 370 0 c 2
 508.520507812 600 l 2
 520.756835938 653 440.756835938 653 428.520507812 600 c 2
 304.168945312 61.37109375 l 1
EndSplineSet
Validated: 524329
EndChar

StartChar: M
Encoding: 77 77 70
Width: 470
Flags: W
HStem: -40 41<115.23 272.954> 600 40<338.561 437.311>
VStem: 449.203 80<483.511 588.421>
LayerCount: 2
Fore
SplineSet
110.440429688 565 m 0
 146.137695312 541.963867188 197.865234375 555.546875 249.642578125 571.87109375 c 1
 88.990234375 434.07421875 77.63671875 184.680664062 35 0 c 0
 29.9208984375 -22 43.765625 -40 65.765625 -40 c 0
 316.765625 -40 396.150390625 -34 529.94140625 186 c 0
 560.485351562 236 492.94921875 264 462.40625 214 c 0
 351.849609375 34 299.23046875 1 115.23046875 1 c 1
 156.787109375 181 117.510742188 496 372.520507812 600 c 1
 438.520507812 600 466.287109375 573 449.203125 499 c 0
 436.966796875 446 516.966796875 446 529.203125 499 c 0
 558.75390625 627 477.755859375 640 372.755859375 640 c 0
 305.755859375 640 196.978515625 563 139.751953125 601 c 0
 118.984375 615 89.6728515625 579 110.440429688 565 c 0
EndSplineSet
Validated: 524329
EndChar

StartChar: N
Encoding: 78 78 71
Width: 500
Flags: W
VStem: 452.67 73.9287<374.261 553>
LayerCount: 2
Fore
SplineSet
250.465820312 610.719726562 m 0
 228.521484375 589.6171875 189.755859375 568.799804688 139.751953125 601 c 0
 118.984375 615 89.6728515625 579 110.440429688 565 c 0
 142.735351562 544.096679688 173.973632812 534.364257812 202.423828125 532.572265625 c 1
 165.40625 460.853515625 132.659179688 371.030273438 116.029296875 299 c 0
 91.5576171875 193 84.7744140625 51 111.151367188 -21 c 0
 120.91796875 -48 168.072265625 -43 185.229492188 -12 c 0
 306.790039062 207 384.356445312 491 452.669921875 553 c 1
 451.653320312 384 456.557617188 193 499.305664062 -16 c 1
 512.995117188 -52 573.61328125 -19 560.694335938 16 c 1
 519.40625 214 524.270507812 404 526.598632812 609 c 0
 526.524414062 639 487.064453125 650 461.5234375 626 c 0
 348.744140625 523 267.869140625 229 171.928710938 56 c 1
 162.931640625 82 174.790039062 207 196.029296875 299 c 0
 213.799804688 375.971679688 241.642578125 484.443359375 276.3515625 547.109375 c 1
 293.328125 555.590820312 307.46875 567.096679688 317.903320312 580.000976562 c 0
 354.842773438 623.998046875 301.776367188 662.505859375 264.168945312 625.52734375 c 0
 262.646484375 624.478515625 261.122070312 623.305664062 259.600585938 622.000976562 c 0
 256.564453125 618.4609375 253.516601562 614.694335938 250.465820312 610.719726562 c 0
EndSplineSet
Validated: 524329
EndChar

StartChar: O
Encoding: 79 79 72
Width: 470
Flags: W
HStem: 598 42<391.387 475.457>
LayerCount: 2
Fore
SplineSet
213.086914062 100 m 2
 259.26171875 300 l 2
 293.19921875 447 364.060546875 598 438.060546875 598 c 0
 513.060546875 598 513.19921875 447 479.26171875 300 c 2
 408.922851562 -9 l 1
 332.229492188 -25 238.008789062 78 141.3125 36 c 0
 88.001953125 13 105.379882812 -59 158.689453125 -36 c 0
 250.924804688 4 335.456054688 -63 449.997070312 -39 c 0
 468.920898438 -35 485.614257812 -19 490.000976562 0 c 2
 559.26171875 300 l 2
 617.670898438 553 532.756835938 640 447.756835938 640 c 2
 446.756835938 640 l 2
 362.756835938 640 237.670898438 553 179.26171875 300 c 2
 158.26953125 207.073242188 l 1
 121.888671875 240.487304688 65.42578125 247.139648438 28.7919921875 233 c 0
 -26.0556640625 212 -11.9091796875 139 41.7080078125 159 c 0
 69.1435546875 169.6015625 125.512695312 173.895507812 143.748046875 142.791992188 c 1
 133.85546875 99 l 2
 122.620117188 46 201.850585938 47 213.086914062 100 c 2
EndSplineSet
Validated: 524329
EndChar

StartChar: P
Encoding: 80 80 73
Width: 449
Flags: W
HStem: -39.999 40<197.052 246> 360 41.0059<201.68 298.369>
LayerCount: 2
Fore
SplineSet
261.112304688 360 m 0
 314.34375 361 390.119140625 451.001953125 401.201171875 499.001953125 c 2
 401.893554688 502.001953125 l 1
 414.5703125 585.591796875 381.297851562 609.590820312 333.5625 617.081054688 c 0
 330.83203125 620.08984375 326.573242188 622.001953125 320.598632812 622.001953125 c 0
 313.669921875 622.001953125 306.893554688 621.368164062 300.268554688 620.147460938 c 0
 296.012695312 620.303710938 292.106445312 619.24609375 288.700195312 617.381835938 c 0
 235.788085938 601.809570312 193.071289062 548.5625 160.325195312 483.616210938 c 1
 144.296875 529.431640625 140.784179688 582.716796875 122.059570312 611.000976562 c 0
 108.676757812 631.000976562 71.443359375 604.000976562 84.595703125 583.000976562 c 0
 107.368164062 549.131835938 113.471679688 485.71875 138.450195312 435.147460938 c 1
 120.030273438 389.66015625 105.912109375 341.8046875 96.0302734375 299.000976562 c 0
 67.0947265625 178.000976562 101.765625 -39.9990234375 236.765625 -39.9990234375 c 2
 390.534179688 -40.9990234375 l 2
 412.534179688 -40.9990234375 434.690429688 -22.9990234375 439.76953125 -0.9990234375 c 2
 577.521484375 600.000976562 l 2
 589.756835938 653.000976562 509.756835938 653.000976562 497.521484375 600.000976562 c 2
 359 0.0009765625 l 1
 246 0.0009765625 l 2
 127 0.0009765625 157.252929688 222.000976562 176.030273438 299.000976562 c 0
 180.006835938 316.2265625 184.079101562 344.53515625 189.936523438 376.713867188 c 1
 207.955078125 366.348632812 230.487304688 360.140625 259.138671875 360.002929688 c 0
 259.775390625 359.9765625 260.438476562 360 261.112304688 360 c 0
298.336914062 578.895507812 m 1
 338.862304688 571.504882812 336.33984375 533.384765625 330.739257812 497.00390625 c 0
 327.047851562 481.015625 307.836914062 402.123046875 268.665039062 401.005859375 c 0
 238.194335938 401.16796875 215.94921875 409.469726562 199.301757812 422.83203125 c 1
 215.799804688 494.704101562 243.59375 569.021484375 298.336914062 578.895507812 c 1
EndSplineSet
Validated: 524329
EndChar

StartChar: Q
Encoding: 81 81 74
Width: 500
Flags: W
HStem: -39 78<268.754 390.03> 599 41<361.392 497.892>
LayerCount: 2
Fore
SplineSet
374.00390625 39 m 0
 250.30859375 10 248.393554688 97 120.540039062 24 c 1
 209.655273438 410 288.2890625 599 438.2890625 599 c 0
 536.533203125 599 526.673828125 509.454101562 511.009765625 437.524414062 c 2
 502.115234375 399 l 2
 497.036132812 377 514.497070312 366 534.497070312 366 c 0
 554.497070312 366 577.036132812 377 582.115234375 399 c 2
 629.2890625 599 l 2
 642.166992188 650.640625 568.866210938 653.811523438 550.658203125 606.764648438 c 1
 527.528320312 627.733398438 494.0078125 640 447.755859375 640 c 0
 287.755859375 640 170.750976562 588 35 0 c 0
 28.07421875 -30 60.45703125 -50 89.3818359375 -33 c 0
 254.083007812 61 263.224609375 -64 373.99609375 -39 c 0
 428.997070312 -26 427.774414062 51 374.00390625 39 c 0
EndSplineSet
Validated: 524329
EndChar

StartChar: R
Encoding: 82 82 75
Width: 470
Flags: W
VStem: 223.998 82.5283<469.035 535.06>
LayerCount: 2
Fore
SplineSet
612.42578125 634.76953125 m 0
 609.205078125 637.987304688 604.376953125 640.000976562 597.755859375 640.000976562 c 0
 524.755859375 640.000976562 490.290039062 599.000976562 395.21484375 616.000976562 c 0
 360.061523438 624.000976562 348.754882812 627.000976562 307.525390625 639.000976562 c 0
 283.91015625 645.000976562 254.5234375 626.000976562 248.521484375 600.000976562 c 2
 244.064453125 580.6953125 l 1
 207.891601562 582.958007812 164.918945312 571.794921875 139.750976562 601.000976562 c 0
 123.90625 619.000976562 88.98046875 589.000976562 104.59375 570.000976562 c 0
 144.42578125 524.625 212.7109375 581.418945312 223.998046875 490.82421875 c 1
 221.7421875 451.010742188 278.83203125 448.850585938 299.458007812 484.34375 c 0
 303.331054688 490.294921875 305.901367188 497.157226562 306.526367188 504.73828125 c 2
 325.517578125 587.000976562 l 1
 329.287109375 586.000976562 341.825195312 584.000976562 370.440429688 578.000976562 c 1
 371.440429688 578.000976562 l 1
 450.784179688 563.083984375 488.411132812 577.09375 534.359375 585.178710938 c 1
 352.868164062 396.1640625 239.170898438 242.736328125 87.451171875 -101.999023438 c 0
 64.4453125 -153.999023438 138.751953125 -169.999023438 161.756835938 -117.999023438 c 0
 316.022460938 234.000976562 422.729492188 380.000976562 614.979492188 576.000976562 c 0
 640.856445312 599.110351562 632.436523438 627.165039062 612.42578125 634.76953125 c 0
EndSplineSet
Validated: 524329
EndChar

StartChar: S
Encoding: 83 83 76
Width: 500
Flags: W
HStem: 670 40<87.3759 197.863>
VStem: 217.009 71.6943<84.5857 205.297>
LayerCount: 2
Fore
SplineSet
136.181640625 278 m 1
 210.485351562 236 219.015625 156 217.008789062 91 c 0
 216.620117188 46 289.083007812 61 288.703125 107 c 0
 291.171875 187 248.94921875 264 151.877929688 320 c 1
 124.801757812 324 109.104492188 282 136.181640625 278 c 1
97.681640625 670 m 0
 346.453125 695 402.564453125 258 408.69140625 -10 c 0
 408.702148438 -10.546875 408.720703125 -11.0859375 408.749023438 -11.6162109375 c 0
 408.836914062 -14.408203125 409.236328125 -16.9931640625 409.908203125 -19.3701171875 c 0
 415.895507812 -42.482421875 442.630859375 -45.2431640625 463.853515625 -34.009765625 c 0
 466.400390625 -32.689453125 468.870117188 -31.1416015625 471.216796875 -29.3662109375 c 0
 481.810546875 -21.494140625 489.850585938 -9.724609375 491.13671875 4.92578125 c 2
 628.520507812 600 l 2
 640.756835938 653 560.756835938 653 548.520507812 600 c 2
 466.771484375 245.904296875 l 1
 418.819335938 502.016601562 300.634765625 729.924804688 102.916015625 710 c 0
 75.455078125 708 69.9892578125 667 97.681640625 670 c 0
EndSplineSet
Validated: 524329
EndChar

StartChar: T
Encoding: 84 84 77
Width: 450
Flags: W
HStem: 156 78<435.259 511.997> 165.001 70<31.2821 100.022>
VStem: 318.521 100<513.514 617.055>
LayerCount: 2
Fore
SplineSet
295.418945312 109.155273438 m 1xa0
 341.213867188 278.057617188 383.094726562 450.1015625 418.521484375 600.001953125 c 0
 433.758789062 666.001953125 333.989257812 667.001953125 318.521484375 600.001953125 c 0
 282.525390625 447.7265625 253.875976562 272.094726562 211.232421875 99.3056640625 c 1
 177.185546875 174.580078125 115.951171875 235.000976562 54.25390625 235.000976562 c 0
 7.25390625 235.000976562 -8.90625 165.000976562 38.09375 165.000976562 c 0x60
 98.1005859375 165.000976562 166.55859375 101.349609375 188.606445312 13.12890625 c 0
 187.56640625 9.416015625 186.518554688 5.7060546875 185.461914062 2 c 0
 170.225585938 -51 249.302734375 -55 264.538085938 -2 c 0
 266.276367188 4.099609375 268.010742188 10.2109375 269.740234375 16.3330078125 c 0
 335.452148438 100.975585938 432.7109375 143.421875 494.014648438 156 c 0
 548.553710938 167 550.561523438 245 496.022460938 234 c 0
 434.931640625 222.321289062 358.15234375 173.356445312 295.418945312 109.155273438 c 1xa0
EndSplineSet
Validated: 524329
EndChar

StartChar: U
Encoding: 85 85 78
Width: 500
Flags: W
HStem: -40 41.001<303.233 410.23>
LayerCount: 2
Fore
SplineSet
110.440429688 565 m 0
 154.87109375 536.2421875 197.298828125 528.626953125 233.223632812 533.743164062 c 1
 156.172851562 200 l 2
 129.853515625 86 170.764648438 -40 440.764648438 -40 c 0
 462.764648438 -40 484.919921875 -22 489.999023438 0 c 2
 611.205078125 525 l 2
 619.169921875 559.499023438 588.053710938 571.541992188 561.984375 561.127929688 c 0
 560.391601562 560.606445312 558.74609375 559.903320312 557.0546875 559 c 0
 437.5859375 492 372.198242188 460 311.265625 365 c 0
 279.953125 316 346.796875 285 378.33984375 335 c 0
 421.2265625 401.123046875 451.555664062 446.229492188 524.266601562 494.946289062 c 1
 410.23046875 1.0009765625 l 1
 226.23046875 1.0009765625 215.856445312 112.000976562 236.172851562 200.000976562 c 2
 329.2890625 599.000976562 l 2
 335.21484375 622.76171875 322.896484375 636.260742188 306.09375 639.328125 c 0
 297.309570312 641.465820312 287.091796875 640.440429688 277.110351562 635.142578125 c 0
 268.331054688 631.034179688 260.283203125 624.31640625 254.665039062 614.96875 c 0
 233.688476562 592.659179688 193.12109375 566.6328125 139.751953125 601 c 0
 118.984375 615 89.6728515625 579 110.440429688 565 c 0
EndSplineSet
Validated: 524329
EndChar

StartChar: V
Encoding: 86 86 79
Width: 500
Flags: W
HStem: 571.001 68<559.899 606.444>
VStem: 258.231 90.5381<-16.4735 81.9119>
LayerCount: 2
Fore
SplineSet
110.440429688 565 m 0
 188.297851562 514.606445312 260.005859375 529.137695312 301.342773438 563.330078125 c 1
 328.966796875 511.143554688 316.491210938 351.370117188 327.326171875 290.28515625 c 1
 304.557617188 167.626953125 291.641601562 128.69921875 258.231445312 1.0009765625 c 0
 242.37890625 -58.9990234375 332.686523438 -61.9990234375 348.76953125 -0.9990234375 c 0
 382.452148438 127.967773438 385.359375 169.114257812 407.87109375 292.178710938 c 1
 454.69921875 366.45703125 530.590820312 557.6640625 590.827148438 571.000976562 c 0
 638.59765625 583.000976562 637.296875 651.000976562 588.526367188 639.000976562 c 0
 517.0625 624.000976562 400.348632812 400.000976562 388.192382812 382.000976562 c 1
 382.120117188 403.001953125 369.439453125 566.547851562 327.828125 621.888671875 c 1
 318.237304688 643.30078125 283.893554688 650.26953125 259.138671875 620 c 0
 239.828125 597 197.209960938 564 139.751953125 601 c 0
 118.984375 615 89.6728515625 579 110.440429688 565 c 0
EndSplineSet
Validated: 524329
EndChar

StartChar: W
Encoding: 87 87 80
Width: 500
Flags: W
HStem: -41.001 42.001<197.561 246 269.533 335.384> 397.999 41.001<368.602 425.615> 559.999 70<547.096 602.258> 560 40.999<386.495 468.979> 598 42<315.795 380.325>
LayerCount: 2
Fore
SplineSet
110.440429688 565 m 0xc8
 141.552734375 544.922851562 184.83984375 552.661132812 229.725585938 565.788085938 c 1
 179.977539062 512.251953125 133.491210938 426.616210938 104.028320312 298.999023438 c 0
 45.619140625 45.9990234375 130.763671875 -40.0009765625 235.763671875 -40.0009765625 c 2
 268.533203125 -41.0009765625 l 1
 269.533203125 -41.0009765625 l 2
 374.533203125 -41.0009765625 500.619140625 45.9990234375 559.028320312 298.999023438 c 0
 589.165039062 429.53515625 575.883789062 505.764648438 545.801757812 548.977539062 c 1
 554.931640625 555.91796875 565.616210938 559.999023438 579.286132812 559.999023438 c 0
 626.286132812 559.999023438 642.446289062 629.999023438 595.446289062 629.999023438 c 0xe0
 560.559570312 629.999023438 542.266601562 606.254882812 522.234375 574.186523438 c 1
 496.547851562 594.536132812 465.625976562 600.999023438 438.751953125 600.999023438 c 0xd0
 362.751953125 600.999023438 319.056640625 571.999023438 300.43359375 499.999023438 c 2
 299.971679688 497.999023438 l 2
 286.041992188 428.999023438 315.885742188 397.999023438 391.885742188 397.999023438 c 0
 398.885742188 397.999023438 405.116210938 398.999023438 412.040039062 402.999023438 c 0
 451.387695312 421.639648438 474.913085938 448.203125 492.572265625 474.190429688 c 1
 498.978515625 428.287109375 494.7734375 367.194335938 479.029296875 299 c 0
 445.091796875 152 374.23046875 1 278.23046875 1 c 2
 277.23046875 1 l 1
 246 0 l 2
 150 0 150.091796875 152 184.029296875 299 c 0
 217.966796875 446 288.059570312 598 363.059570312 598 c 0
 391.059570312 598 400.755859375 640 372.755859375 640 c 0
 356.91015625 640 339.663085938 636.94140625 321.709960938 630.326171875 c 0
 258.985351562 610.9453125 183.975585938 571.633789062 139.751953125 601 c 0
 118.984375 615 89.6728515625 579 110.440429688 565 c 0xc8
482.900390625 514.106445312 m 1
 461.87109375 486.624023438 433.953125 459.403320312 391.3515625 439 c 1
 356.3515625 439 365.200195312 473 370.203125 499 c 0
 377.66796875 527 383.286132812 560 429.286132812 560 c 0xd0
 453.875976562 560 471.923828125 543.170898438 482.900390625 514.106445312 c 1
EndSplineSet
Validated: 524329
EndChar

StartChar: X
Encoding: 88 88 81
Width: 500
Flags: W
HStem: -38 76<132.992 320.318>
VStem: 400.308 91.001<-1.48974 252.144>
LayerCount: 2
Fore
SplineSet
135.69921875 68 m 0
 264.25390625 235 308.885742188 398 367.897460938 515 c 1
 384.423828125 396 395.715820312 237 400.307617188 -3 c 1
 341.615234375 -6 245.467773438 67 146.7734375 38 c 0
 92.0791015625 22 98.533203125 -54 153.2265625 -38 c 0
 245.4609375 -11 338.379882812 -46 442.765625 -40 c 0
 467.99609375 -39 491.767578125 -14 491.30859375 10 c 0
 485.487304688 262 450.041015625 416 423.752929688 614 c 0
 418.372070312 647 363.91015625 645 346.060546875 611 c 0
 250.426757812 422 198.641601562 267 74.4716796875 106 c 0
 38.62109375 59 99.8486328125 21 135.69921875 68 c 0
EndSplineSet
Validated: 524329
EndChar

StartChar: Y
Encoding: 89 89 82
Width: 500
Flags: W
HStem: 424.002 40.001<433.687 449.016> 560 70<597.404 652.87> 598.003 41.999<457.604 479.752>
LayerCount: 2
Fore
SplineSet
531.755859375 640 m 2xc0
 480.751953125 640.001953125 l 1
 479.751953125 640.001953125 l 2xa0
 381.290039062 638.001953125 330.884765625 424.001953125 430.884765625 424.001953125 c 0
 436.827148438 424.001953125 442.987304688 425.130859375 449.3125 427.18359375 c 1
 380.575195312 300.204101562 258.127929688 145.231445312 227.393554688 110.000976562 c 1
 245.079101562 178.059570312 327.518554688 433.889648438 329.55859375 602.075195312 c 0
 331.473632812 610.732421875 330.026367188 618.561523438 326.288085938 624.8515625 c 0
 321.7734375 634.05859375 313.09375 638.875976562 303.088867188 639.92578125 c 0
 294.965820312 641.190429688 285.846679688 639.827148438 276.924804688 635.04296875 c 0
 267.323242188 630.536132812 258.642578125 623.171875 253.227539062 613.46484375 c 0
 231.865234375 591.5234375 191.926757812 567.40234375 139.751953125 601 c 0
 118.984375 615 89.6728515625 579 110.440429688 565 c 0
 159.5078125 533.241210938 206.1328125 527.267578125 244.251953125 535.750976562 c 1
 227.44921875 375.125 148.5546875 155.403320312 110.229492188 1 c 0
 100.6875 -36 151.994140625 -52 179.150390625 -21 c 0
 290.904296875 108.171875 470.85546875 339.227539062 541.452148438 493.610351562 c 1
 576.504882812 525.828125 609.563476562 557.586914062 633.28515625 560 c 0
 681.439453125 565 689.600585938 635 642.446289062 630 c 0
 620.709960938 627.75 595.759765625 609.791015625 570.713867188 586.456054688 c 1
 571.9765625 599.860351562 570.971679688 611.485351562 567.369140625 621 c 0
 561.9765625 634.583007812 550.833984375 639.684570312 538.681640625 638.952148438 c 0
 536.697265625 639.626953125 534.393554688 640 531.755859375 640 c 2xc0
480.16015625 491.666992188 m 1
 463.577148438 475.147460938 449.650390625 464.002929688 440.119140625 464.002929688 c 2
 439.119140625 464.002929688 l 2
 421.119140625 464.002929688 451.055664062 598.002929688 470.055664062 598.002929688 c 2
 491.291015625 598.002929688 l 1
 490.334960938 591.880859375 490.958007812 585.453125 493.669921875 579.002929688 c 0
 500.982421875 559.073242188 494.801757812 528.256835938 480.16015625 491.666992188 c 1
EndSplineSet
Validated: 524329
EndChar

StartChar: Z
Encoding: 90 90 83
Width: 450
Flags: W
HStem: -40.001 42<109.921 292.073> 182 36<179.941 359.069>
LayerCount: 2
Fore
SplineSet
204.017578125 182 m 1
 255.376953125 196.873046875 313.126953125 175.028320312 371.346679688 161.766601562 c 1
 361.2421875 117.999023438 l 2
 340.463867188 27.9990234375 298.461914062 1.9990234375 150.461914062 1.9990234375 c 2
 149.461914062 1.9990234375 l 2
 77.4619140625 1.9990234375 116.083007812 60.9990234375 130.162109375 82.9990234375 c 0
 163.243164062 130.999023438 98.8623046875 163.999023438 65.5498046875 114.999023438 c 0
 22.2353515625 52.9990234375 19.7646484375 -40.0009765625 140.764648438 -40.0009765625 c 0
 327.12890625 -40.0009765625 406.15625 -28.208984375 449.34765625 153.184570312 c 1
 470.450195312 154.478515625 491.2578125 159.66796875 511.477539062 170.999023438 c 0
 556.172851562 199.999023438 525.5625 257.999023438 480.8671875 228.999023438 c 0
 475.7265625 226.095703125 470.540039062 223.590820312 465.309570312 221.44140625 c 1
 486.86328125 313.626953125 508.41796875 405.8125 529.971679688 497.998046875 c 0
 535.734375 521.106445312 524.240234375 534.508789062 508.147460938 538.048828125 c 0
 497.3359375 541.470703125 483.784179688 539.67578125 470.099609375 529.713867188 c 0
 467.99609375 528.252929688 465.974609375 526.619140625 464.063476562 524.8125 c 0
 382.907226562 456.092773438 195.124023438 552.275390625 139.750976562 600.999023438 c 0
 120.444335938 616.999023438 88.826171875 583.999023438 108.131835938 567.999023438 c 0
 162.798828125 519.612304688 322.201171875 431.5859375 435.967773438 441.671875 c 1
 382.643554688 210.700195312 l 1
 320.213867188 214.908203125 254.14453125 236.768554688 188.329101562 218 c 1
 160.866210938 203 175.32421875 166 204.017578125 182 c 1
EndSplineSet
Validated: 524329
EndChar
